<?xml version="1.0" encoding="UTF-8" standalone="no"?><svg xmlns="http://www.w3.org/2000/svg" xmlns:xlink="http://www.w3.org/1999/xlink" contentStyleType="text/css" height="1945px" preserveAspectRatio="none" style="width:1415px;height:1945px;background:#FFFFFF;" version="1.1" viewBox="0 0 1415 1945" width="1415px" zoomAndPan="magnify"><defs/><g><rect fill="#FFFFE0" height="1933.8984" style="stroke:#181818;stroke-width:0.5;" width="577.5" x="109" y="6"/><text fill="#000000" font-family="sans-serif" font-size="13" font-weight="bold" lengthAdjust="spacing" textLength="165" x="315.25" y="18.0669">Frontend Components</text><rect fill="#90EE90" height="1933.8984" style="stroke:#181818;stroke-width:0.5;" width="368" x="708.5" y="6"/><text fill="#000000" font-family="sans-serif" font-size="13" font-weight="bold" lengthAdjust="spacing" textLength="133" x="826" y="18.0669">Frontend Services</text><rect fill="#ADD8E6" height="1933.8984" style="stroke:#181818;stroke-width:0.5;" width="299" x="1098.5" y="6"/><text fill="#000000" font-family="sans-serif" font-size="13" font-weight="bold" lengthAdjust="spacing" textLength="97" x="1199.5" y="18.0669">State &amp; HTTP</text><rect fill="#FFFFFF" height="1696.0391" style="stroke:#181818;stroke-width:1.0;" width="10" x="176" y="155.5625"/><rect fill="#FFFFFF" height="93.3984" style="stroke:#181818;stroke-width:1.0;" width="10" x="326" y="184.6953"/><rect fill="#FFFFFF" height="58.2656" style="stroke:#181818;stroke-width:1.0;" width="10" x="326" y="357.3594"/><rect fill="#FFFFFF" height="100.3984" style="stroke:#181818;stroke-width:1.0;" width="10" x="326" y="1482.1406"/><rect fill="#FFFFFF" height="116.5313" style="stroke:#181818;stroke-width:1.0;" width="10" x="605.5" y="512.0234"/><rect fill="#FFFFFF" height="275.1953" style="stroke:#181818;stroke-width:1.0;" width="10" x="605.5" y="688.8203"/><rect fill="#FFFFFF" height="116.5313" style="stroke:#181818;stroke-width:1.0;" width="10" x="605.5" y="1067.4141"/><rect fill="#FFFFFF" height="158.6641" style="stroke:#181818;stroke-width:1.0;" width="10" x="605.5" y="1244.2109"/><rect fill="#FFFFFF" height="187.7969" style="stroke:#181818;stroke-width:1.0;" width="10" x="605.5" y="1654.8047"/><rect fill="none" height="162.7969" style="stroke:#000000;stroke-width:1.5;" width="1236.5" x="10" y="473.7578"/><rect fill="none" height="321.4609" style="stroke:#000000;stroke-width:1.5;" width="1236.5" x="10" y="650.5547"/><rect fill="none" height="162.7969" style="stroke:#000000;stroke-width:1.5;" width="1236.5" x="10" y="1029.1484"/><rect fill="none" height="204.9297" style="stroke:#000000;stroke-width:1.5;" width="1236.5" x="10" y="1205.9453"/><line style="stroke:#181818;stroke-width:0.5;stroke-dasharray:5.0,5.0;" x1="39" x2="39" y1="81.2969" y2="1860.6016"/><line style="stroke:#181818;stroke-width:0.5;stroke-dasharray:5.0,5.0;" x1="181" x2="181" y1="81.2969" y2="1860.6016"/><line style="stroke:#181818;stroke-width:0.5;stroke-dasharray:5.0,5.0;" x1="331" x2="331" y1="81.2969" y2="1860.6016"/><line style="stroke:#181818;stroke-width:0.5;stroke-dasharray:5.0,5.0;" x1="477.5" x2="477.5" y1="81.2969" y2="1860.6016"/><line style="stroke:#181818;stroke-width:0.5;stroke-dasharray:5.0,5.0;" x1="610.5" x2="610.5" y1="81.2969" y2="1860.6016"/><line style="stroke:#181818;stroke-width:0.5;stroke-dasharray:5.0,5.0;" x1="772.5" x2="772.5" y1="81.2969" y2="1860.6016"/><line style="stroke:#181818;stroke-width:0.5;stroke-dasharray:5.0,5.0;" x1="900.5" x2="900.5" y1="81.2969" y2="1860.6016"/><line style="stroke:#181818;stroke-width:0.5;stroke-dasharray:5.0,5.0;" x1="1020.5" x2="1020.5" y1="81.2969" y2="1860.6016"/><line style="stroke:#181818;stroke-width:0.5;stroke-dasharray:5.0,5.0;" x1="1169.5" x2="1169.5" y1="81.2969" y2="1860.6016"/><line style="stroke:#181818;stroke-width:0.5;stroke-dasharray:5.0,5.0;" x1="1319.5" x2="1319.5" y1="81.2969" y2="1860.6016"/><text fill="#000000" font-family="sans-serif" font-size="14" lengthAdjust="spacing" textLength="32" x="20" y="77.9951">User</text><ellipse cx="39" cy="13.5" fill="#E2E2F0" rx="8" ry="8" style="stroke:#181818;stroke-width:0.5;"/><path d="M39,21.5 L39,48.5 M26,29.5 L52,29.5 M39,48.5 L26,63.5 M39,48.5 L52,63.5 " fill="none" style="stroke:#181818;stroke-width:0.5;"/><text fill="#000000" font-family="sans-serif" font-size="14" lengthAdjust="spacing" textLength="32" x="20" y="1872.5967">User</text><ellipse cx="39" cy="1884.3984" fill="#E2E2F0" rx="8" ry="8" style="stroke:#181818;stroke-width:0.5;"/><path d="M39,1892.3984 L39,1919.3984 M26,1900.3984 L52,1900.3984 M39,1919.3984 L26,1934.3984 M39,1919.3984 L52,1934.3984 " fill="none" style="stroke:#181818;stroke-width:0.5;"/><rect fill="#E2E2F0" height="46.5938" rx="2.5" ry="2.5" style="stroke:#181818;stroke-width:0.5;" width="96" x="133" y="33.7031"/><text fill="#000000" font-family="sans-serif" font-size="14" lengthAdjust="spacing" textLength="27" x="167.5" y="53.6982">App</text><text fill="#000000" font-family="sans-serif" font-size="14" lengthAdjust="spacing" textLength="82" x="140" y="69.9951">Component</text><rect fill="#E2E2F0" height="46.5938" rx="2.5" ry="2.5" style="stroke:#181818;stroke-width:0.5;" width="96" x="133" y="1859.6016"/><text fill="#000000" font-family="sans-serif" font-size="14" lengthAdjust="spacing" textLength="27" x="167.5" y="1879.5967">App</text><text fill="#000000" font-family="sans-serif" font-size="14" lengthAdjust="spacing" textLength="82" x="140" y="1895.8936">Component</text><rect fill="#E2E2F0" height="46.5938" rx="2.5" ry="2.5" style="stroke:#181818;stroke-width:0.5;" width="96" x="283" y="33.7031"/><text fill="#000000" font-family="sans-serif" font-size="14" lengthAdjust="spacing" textLength="47" x="307.5" y="53.6982">Navbar</text><text fill="#000000" font-family="sans-serif" font-size="14" lengthAdjust="spacing" textLength="82" x="290" y="69.9951">Component</text><rect fill="#E2E2F0" height="46.5938" rx="2.5" ry="2.5" style="stroke:#181818;stroke-width:0.5;" width="96" x="283" y="1859.6016"/><text fill="#000000" font-family="sans-serif" font-size="14" lengthAdjust="spacing" textLength="47" x="307.5" y="1879.5967">Navbar</text><text fill="#000000" font-family="sans-serif" font-size="14" lengthAdjust="spacing" textLength="82" x="290" y="1895.8936">Component</text><rect fill="#E2E2F0" height="30.2969" rx="2.5" ry="2.5" style="stroke:#181818;stroke-width:0.5;" width="61" x="447.5" y="50"/><text fill="#000000" font-family="sans-serif" font-size="14" lengthAdjust="spacing" textLength="47" x="454.5" y="69.9951">Router</text><rect fill="#E2E2F0" height="30.2969" rx="2.5" ry="2.5" style="stroke:#181818;stroke-width:0.5;" width="61" x="447.5" y="1859.6016"/><text fill="#000000" font-family="sans-serif" font-size="14" lengthAdjust="spacing" textLength="47" x="454.5" y="1879.5967">Router</text><rect fill="#E2E2F0" height="46.5938" rx="2.5" ry="2.5" style="stroke:#181818;stroke-width:0.5;" width="104" x="558.5" y="33.7031"/><text fill="#000000" font-family="sans-serif" font-size="14" lengthAdjust="spacing" textLength="53" x="584" y="53.6982">Feature</text><text fill="#000000" font-family="sans-serif" font-size="14" lengthAdjust="spacing" textLength="90" x="565.5" y="69.9951">Components</text><rect fill="#E2E2F0" height="46.5938" rx="2.5" ry="2.5" style="stroke:#181818;stroke-width:0.5;" width="104" x="558.5" y="1859.6016"/><text fill="#000000" font-family="sans-serif" font-size="14" lengthAdjust="spacing" textLength="53" x="584" y="1879.5967">Feature</text><text fill="#000000" font-family="sans-serif" font-size="14" lengthAdjust="spacing" textLength="90" x="565.5" y="1895.8936">Components</text><rect fill="#E2E2F0" height="46.5938" rx="2.5" ry="2.5" style="stroke:#181818;stroke-width:0.5;" width="80" x="732.5" y="33.7031"/><text fill="#000000" font-family="sans-serif" font-size="14" lengthAdjust="spacing" textLength="66" x="739.5" y="53.6982">Blog Post</text><text fill="#000000" font-family="sans-serif" font-size="14" lengthAdjust="spacing" textLength="50" x="747.5" y="69.9951">Service</text><rect fill="#E2E2F0" height="46.5938" rx="2.5" ry="2.5" style="stroke:#181818;stroke-width:0.5;" width="80" x="732.5" y="1859.6016"/><text fill="#000000" font-family="sans-serif" font-size="14" lengthAdjust="spacing" textLength="66" x="739.5" y="1879.5967">Blog Post</text><text fill="#000000" font-family="sans-serif" font-size="14" lengthAdjust="spacing" textLength="50" x="747.5" y="1895.8936">Service</text><rect fill="#E2E2F0" height="46.5938" rx="2.5" ry="2.5" style="stroke:#181818;stroke-width:0.5;" width="76" x="862.5" y="33.7031"/><text fill="#000000" font-family="sans-serif" font-size="14" lengthAdjust="spacing" textLength="62" x="869.5" y="53.6982">Category</text><text fill="#000000" font-family="sans-serif" font-size="14" lengthAdjust="spacing" textLength="50" x="875.5" y="69.9951">Service</text><rect fill="#E2E2F0" height="46.5938" rx="2.5" ry="2.5" style="stroke:#181818;stroke-width:0.5;" width="76" x="862.5" y="1859.6016"/><text fill="#000000" font-family="sans-serif" font-size="14" lengthAdjust="spacing" textLength="62" x="869.5" y="1879.5967">Category</text><text fill="#000000" font-family="sans-serif" font-size="14" lengthAdjust="spacing" textLength="50" x="875.5" y="1895.8936">Service</text><rect fill="#E2E2F0" height="46.5938" rx="2.5" ry="2.5" style="stroke:#181818;stroke-width:0.5;" width="64" x="988.5" y="33.7031"/><text fill="#000000" font-family="sans-serif" font-size="14" lengthAdjust="spacing" textLength="42" x="999.5" y="53.6982">Image</text><text fill="#000000" font-family="sans-serif" font-size="14" lengthAdjust="spacing" textLength="50" x="995.5" y="69.9951">Service</text><rect fill="#E2E2F0" height="46.5938" rx="2.5" ry="2.5" style="stroke:#181818;stroke-width:0.5;" width="64" x="988.5" y="1859.6016"/><text fill="#000000" font-family="sans-serif" font-size="14" lengthAdjust="spacing" textLength="42" x="999.5" y="1879.5967">Image</text><text fill="#000000" font-family="sans-serif" font-size="14" lengthAdjust="spacing" textLength="50" x="995.5" y="1895.8936">Service</text><rect fill="#E2E2F0" height="30.2969" rx="2.5" ry="2.5" style="stroke:#181818;stroke-width:0.5;" width="94" x="1122.5" y="50"/><text fill="#000000" font-family="sans-serif" font-size="14" lengthAdjust="spacing" textLength="80" x="1129.5" y="69.9951">HTTP Client</text><rect fill="#E2E2F0" height="30.2969" rx="2.5" ry="2.5" style="stroke:#181818;stroke-width:0.5;" width="94" x="1122.5" y="1859.6016"/><text fill="#000000" font-family="sans-serif" font-size="14" lengthAdjust="spacing" textLength="80" x="1129.5" y="1879.5967">HTTP Client</text><rect fill="#E2E2F0" height="30.2969" rx="2.5" ry="2.5" style="stroke:#181818;stroke-width:0.5;" width="107" x="1266.5" y="50"/><text fill="#000000" font-family="sans-serif" font-size="14" lengthAdjust="spacing" textLength="93" x="1273.5" y="69.9951">Local Storage</text><rect fill="#E2E2F0" height="30.2969" rx="2.5" ry="2.5" style="stroke:#181818;stroke-width:0.5;" width="107" x="1266.5" y="1859.6016"/><text fill="#000000" font-family="sans-serif" font-size="14" lengthAdjust="spacing" textLength="93" x="1273.5" y="1879.5967">Local Storage</text><rect fill="#FFFFFF" height="1696.0391" style="stroke:#181818;stroke-width:1.0;" width="10" x="176" y="155.5625"/><rect fill="#FFFFFF" height="93.3984" style="stroke:#181818;stroke-width:1.0;" width="10" x="326" y="184.6953"/><rect fill="#FFFFFF" height="58.2656" style="stroke:#181818;stroke-width:1.0;" width="10" x="326" y="357.3594"/><rect fill="#FFFFFF" height="100.3984" style="stroke:#181818;stroke-width:1.0;" width="10" x="326" y="1482.1406"/><rect fill="#FFFFFF" height="116.5313" style="stroke:#181818;stroke-width:1.0;" width="10" x="605.5" y="512.0234"/><rect fill="#FFFFFF" height="275.1953" style="stroke:#181818;stroke-width:1.0;" width="10" x="605.5" y="688.8203"/><rect fill="#FFFFFF" height="116.5313" style="stroke:#181818;stroke-width:1.0;" width="10" x="605.5" y="1067.4141"/><rect fill="#FFFFFF" height="158.6641" style="stroke:#181818;stroke-width:1.0;" width="10" x="605.5" y="1244.2109"/><rect fill="#FFFFFF" height="187.7969" style="stroke:#181818;stroke-width:1.0;" width="10" x="605.5" y="1654.8047"/><rect fill="#EEEEEE" height="3" style="stroke:#EEEEEE;stroke-width:1.0;" width="1408.5" x="0" y="111.8633"/><line style="stroke:#000000;stroke-width:1.0;" x1="0" x2="1408.5" y1="111.8633" y2="111.8633"/><line style="stroke:#000000;stroke-width:1.0;" x1="0" x2="1408.5" y1="114.8633" y2="114.8633"/><rect fill="#EEEEEE" height="23.1328" style="stroke:#000000;stroke-width:2.0;" width="196" x="606.25" y="101.2969"/><text fill="#000000" font-family="sans-serif" font-size="13" font-weight="bold" lengthAdjust="spacing" textLength="177" x="612.25" y="117.3638">Application Initialization</text><polygon fill="#181818" points="164,151.5625,174,155.5625,164,159.5625,168,155.5625" style="stroke:#181818;stroke-width:1.0;"/><line style="stroke:#181818;stroke-width:1.0;" x1="39" x2="170" y1="155.5625" y2="155.5625"/><text fill="#000000" font-family="sans-serif" font-size="13" lengthAdjust="spacing" textLength="118" x="46" y="150.4966">Access application</text><polygon fill="#181818" points="314,180.6953,324,184.6953,314,188.6953,318,184.6953" style="stroke:#181818;stroke-width:1.0;"/><line style="stroke:#181818;stroke-width:1.0;" x1="186" x2="320" y1="184.6953" y2="184.6953"/><text fill="#000000" font-family="sans-serif" font-size="13" lengthAdjust="spacing" textLength="121" x="193" y="179.6294">Initialize navigation</text><polygon fill="#181818" points="1308,209.8281,1318,213.8281,1308,217.8281,1312,213.8281" style="stroke:#181818;stroke-width:1.0;"/><line style="stroke:#181818;stroke-width:1.0;" x1="336" x2="1314" y1="213.8281" y2="213.8281"/><text fill="#000000" font-family="sans-serif" font-size="13" lengthAdjust="spacing" textLength="158" x="343" y="208.7622">Check theme preference</text><polygon fill="#181818" points="347,238.9609,337,242.9609,347,246.9609,343,242.9609" style="stroke:#181818;stroke-width:1.0;"/><line style="stroke:#181818;stroke-width:1.0;stroke-dasharray:2.0,2.0;" x1="341" x2="1319" y1="242.9609" y2="242.9609"/><text fill="#000000" font-family="sans-serif" font-size="13" lengthAdjust="spacing" textLength="130" x="353" y="237.895">Return saved theme</text><line style="stroke:#181818;stroke-width:1.0;" x1="336" x2="378" y1="277.0938" y2="277.0938"/><line style="stroke:#181818;stroke-width:1.0;" x1="378" x2="378" y1="277.0938" y2="290.0938"/><line style="stroke:#181818;stroke-width:1.0;" x1="331" x2="378" y1="290.0938" y2="290.0938"/><polygon fill="#181818" points="341,286.0938,331,290.0938,341,294.0938,337,290.0938" style="stroke:#181818;stroke-width:1.0;"/><text fill="#000000" font-family="sans-serif" font-size="13" lengthAdjust="spacing" textLength="81" x="343" y="272.0278">Apply theme</text><rect fill="#EEEEEE" height="3" style="stroke:#EEEEEE;stroke-width:1.0;" width="1408.5" x="0" y="313.6602"/><line style="stroke:#000000;stroke-width:1.0;" x1="0" x2="1408.5" y1="313.6602" y2="313.6602"/><line style="stroke:#000000;stroke-width:1.0;" x1="0" x2="1408.5" y1="316.6602" y2="316.6602"/><rect fill="#EEEEEE" height="23.1328" style="stroke:#000000;stroke-width:2.0;" width="137" x="635.75" y="303.0938"/><text fill="#000000" font-family="sans-serif" font-size="13" font-weight="bold" lengthAdjust="spacing" textLength="118" x="641.75" y="319.1606">Navigation Flow</text><polygon fill="#181818" points="314,353.3594,324,357.3594,314,361.3594,318,357.3594" style="stroke:#181818;stroke-width:1.0;"/><line style="stroke:#181818;stroke-width:1.0;" x1="39" x2="320" y1="357.3594" y2="357.3594"/><text fill="#000000" font-family="sans-serif" font-size="13" lengthAdjust="spacing" textLength="103" x="46" y="352.2935">Click menu item</text><polygon fill="#181818" points="466,382.4922,476,386.4922,466,390.4922,470,386.4922" style="stroke:#181818;stroke-width:1.0;"/><line style="stroke:#181818;stroke-width:1.0;" x1="336" x2="472" y1="386.4922" y2="386.4922"/><text fill="#000000" font-family="sans-serif" font-size="13" lengthAdjust="spacing" textLength="112" x="343" y="381.4263">Navigate to route</text><polygon fill="#181818" points="598.5,411.625,608.5,415.625,598.5,419.625,602.5,415.625" style="stroke:#181818;stroke-width:1.0;"/><line style="stroke:#181818;stroke-width:1.0;" x1="478" x2="604.5" y1="415.625" y2="415.625"/><text fill="#000000" font-family="sans-serif" font-size="13" lengthAdjust="spacing" textLength="108" x="485" y="410.5591">Load component</text><rect fill="#EEEEEE" height="3" style="stroke:#EEEEEE;stroke-width:1.0;" width="1408.5" x="0" y="444.1914"/><line style="stroke:#000000;stroke-width:1.0;" x1="0" x2="1408.5" y1="444.1914" y2="444.1914"/><line style="stroke:#000000;stroke-width:1.0;" x1="0" x2="1408.5" y1="447.1914" y2="447.1914"/><rect fill="#EEEEEE" height="23.1328" style="stroke:#000000;stroke-width:2.0;" width="192" x="608.25" y="433.625"/><text fill="#000000" font-family="sans-serif" font-size="13" font-weight="bold" lengthAdjust="spacing" textLength="173" x="614.25" y="449.6919">Blog Post Management</text><path d="M10,473.7578 L127,473.7578 L127,480.8906 L117,490.8906 L10,490.8906 L10,473.7578 " fill="#EEEEEE" style="stroke:#000000;stroke-width:1.5;"/><rect fill="none" height="162.7969" style="stroke:#000000;stroke-width:1.5;" width="1236.5" x="10" y="473.7578"/><text fill="#000000" font-family="sans-serif" font-size="13" font-weight="bold" lengthAdjust="spacing" textLength="72" x="25" y="486.8247">List Posts</text><polygon fill="#181818" points="593.5,508.0234,603.5,512.0234,593.5,516.0234,597.5,512.0234" style="stroke:#181818;stroke-width:1.0;"/><line style="stroke:#181818;stroke-width:1.0;" x1="39" x2="599.5" y1="512.0234" y2="512.0234"/><text fill="#000000" font-family="sans-serif" font-size="13" lengthAdjust="spacing" textLength="99" x="46" y="506.9575">View blog posts</text><polygon fill="#181818" points="760.5,537.1563,770.5,541.1563,760.5,545.1563,764.5,541.1563" style="stroke:#181818;stroke-width:1.0;"/><line style="stroke:#181818;stroke-width:1.0;" x1="615.5" x2="766.5" y1="541.1563" y2="541.1563"/><text fill="#000000" font-family="sans-serif" font-size="13" lengthAdjust="spacing" textLength="81" x="622.5" y="536.0903">getAllPosts()</text><polygon fill="#181818" points="1157.5,566.2891,1167.5,570.2891,1157.5,574.2891,1161.5,570.2891" style="stroke:#181818;stroke-width:1.0;"/><line style="stroke:#181818;stroke-width:1.0;" x1="772.5" x2="1163.5" y1="570.2891" y2="570.2891"/><text fill="#000000" font-family="sans-serif" font-size="13" lengthAdjust="spacing" textLength="111" x="779.5" y="565.2231">GET /api/blogpost</text><polygon fill="#181818" points="783.5,595.4219,773.5,599.4219,783.5,603.4219,779.5,599.4219" style="stroke:#181818;stroke-width:1.0;"/><line style="stroke:#181818;stroke-width:1.0;stroke-dasharray:2.0,2.0;" x1="777.5" x2="1168.5" y1="599.4219" y2="599.4219"/><text fill="#000000" font-family="sans-serif" font-size="13" lengthAdjust="spacing" textLength="81" x="789.5" y="594.356">Return posts</text><polygon fill="#181818" points="621.5,624.5547,611.5,628.5547,621.5,632.5547,617.5,628.5547" style="stroke:#181818;stroke-width:1.0;"/><line style="stroke:#181818;stroke-width:1.0;stroke-dasharray:2.0,2.0;" x1="615.5" x2="771.5" y1="628.5547" y2="628.5547"/><text fill="#000000" font-family="sans-serif" font-size="13" lengthAdjust="spacing" textLength="90" x="627.5" y="623.4888">Map &amp; display</text><path d="M10,650.5547 L142,650.5547 L142,657.6875 L132,667.6875 L10,667.6875 L10,650.5547 " fill="#EEEEEE" style="stroke:#000000;stroke-width:1.5;"/><rect fill="none" height="321.4609" style="stroke:#000000;stroke-width:1.5;" width="1236.5" x="10" y="650.5547"/><text fill="#000000" font-family="sans-serif" font-size="13" font-weight="bold" lengthAdjust="spacing" textLength="87" x="25" y="663.6216">Create Post</text><polygon fill="#181818" points="593.5,684.8203,603.5,688.8203,593.5,692.8203,597.5,688.8203" style="stroke:#181818;stroke-width:1.0;"/><line style="stroke:#181818;stroke-width:1.0;" x1="39" x2="599.5" y1="688.8203" y2="688.8203"/><text fill="#000000" font-family="sans-serif" font-size="13" lengthAdjust="spacing" textLength="104" x="46" y="683.7544">Create new post</text><polygon fill="#181818" points="1008.5,713.9531,1018.5,717.9531,1008.5,721.9531,1012.5,717.9531" style="stroke:#181818;stroke-width:1.0;"/><line style="stroke:#181818;stroke-width:1.0;" x1="615.5" x2="1014.5" y1="717.9531" y2="717.9531"/><text fill="#000000" font-family="sans-serif" font-size="13" lengthAdjust="spacing" textLength="89" x="622.5" y="712.8872">Upload image</text><polygon fill="#181818" points="1157.5,743.0859,1167.5,747.0859,1157.5,751.0859,1161.5,747.0859" style="stroke:#181818;stroke-width:1.0;"/><line style="stroke:#181818;stroke-width:1.0;" x1="1020.5" x2="1163.5" y1="747.0859" y2="747.0859"/><text fill="#000000" font-family="sans-serif" font-size="13" lengthAdjust="spacing" textLength="105" x="1027.5" y="742.02">POST /api/image</text><polygon fill="#181818" points="626.5,772.2188,616.5,776.2188,626.5,780.2188,622.5,776.2188" style="stroke:#181818;stroke-width:1.0;"/><line style="stroke:#181818;stroke-width:1.0;stroke-dasharray:2.0,2.0;" x1="620.5" x2="1168.5" y1="776.2188" y2="776.2188"/><text fill="#000000" font-family="sans-serif" font-size="13" lengthAdjust="spacing" textLength="69" x="632.5" y="771.1528">Image URL</text><polygon fill="#181818" points="593.5,801.3516,603.5,805.3516,593.5,809.3516,597.5,805.3516" style="stroke:#181818;stroke-width:1.0;"/><line style="stroke:#181818;stroke-width:1.0;" x1="39" x2="599.5" y1="805.3516" y2="805.3516"/><text fill="#000000" font-family="sans-serif" font-size="13" lengthAdjust="spacing" textLength="94" x="46" y="800.2856">Fill post details</text><line style="stroke:#181818;stroke-width:1.0;" x1="615.5" x2="657.5" y1="834.4844" y2="834.4844"/><line style="stroke:#181818;stroke-width:1.0;" x1="657.5" x2="657.5" y1="834.4844" y2="847.4844"/><line style="stroke:#181818;stroke-width:1.0;" x1="616.5" x2="657.5" y1="847.4844" y2="847.4844"/><polygon fill="#181818" points="626.5,843.4844,616.5,847.4844,626.5,851.4844,622.5,847.4844" style="stroke:#181818;stroke-width:1.0;"/><text fill="#000000" font-family="sans-serif" font-size="13" lengthAdjust="spacing" textLength="86" x="622.5" y="829.4185">Validate form</text><polygon fill="#181818" points="760.5,872.6172,770.5,876.6172,760.5,880.6172,764.5,876.6172" style="stroke:#181818;stroke-width:1.0;"/><line style="stroke:#181818;stroke-width:1.0;" x1="615.5" x2="766.5" y1="876.6172" y2="876.6172"/><text fill="#000000" font-family="sans-serif" font-size="13" lengthAdjust="spacing" textLength="108" x="622.5" y="871.5513">createPost(data)</text><polygon fill="#181818" points="1157.5,901.75,1167.5,905.75,1157.5,909.75,1161.5,905.75" style="stroke:#181818;stroke-width:1.0;"/><line style="stroke:#181818;stroke-width:1.0;" x1="772.5" x2="1163.5" y1="905.75" y2="905.75"/><text fill="#000000" font-family="sans-serif" font-size="13" lengthAdjust="spacing" textLength="120" x="779.5" y="900.6841">POST /api/blogpost</text><polygon fill="#181818" points="626.5,930.8828,616.5,934.8828,626.5,938.8828,622.5,934.8828" style="stroke:#181818;stroke-width:1.0;"/><line style="stroke:#181818;stroke-width:1.0;stroke-dasharray:2.0,2.0;" x1="620.5" x2="1168.5" y1="934.8828" y2="934.8828"/><text fill="#000000" font-family="sans-serif" font-size="13" lengthAdjust="spacing" textLength="116" x="632.5" y="929.8169">Success response</text><polygon fill="#181818" points="489,960.0156,479,964.0156,489,968.0156,485,964.0156" style="stroke:#181818;stroke-width:1.0;"/><line style="stroke:#181818;stroke-width:1.0;" x1="483" x2="609.5" y1="964.0156" y2="964.0156"/><text fill="#000000" font-family="sans-serif" font-size="13" lengthAdjust="spacing" textLength="96" x="495" y="958.9497">Navigate to list</text><rect fill="#EEEEEE" height="3" style="stroke:#EEEEEE;stroke-width:1.0;" width="1408.5" x="0" y="999.582"/><line style="stroke:#000000;stroke-width:1.0;" x1="0" x2="1408.5" y1="999.582" y2="999.582"/><line style="stroke:#000000;stroke-width:1.0;" x1="0" x2="1408.5" y1="1002.582" y2="1002.582"/><rect fill="#EEEEEE" height="23.1328" style="stroke:#000000;stroke-width:2.0;" width="188" x="610.25" y="989.0156"/><text fill="#000000" font-family="sans-serif" font-size="13" font-weight="bold" lengthAdjust="spacing" textLength="169" x="616.25" y="1005.0825">Category Management</text><path d="M10,1029.1484 L166,1029.1484 L166,1036.2813 L156,1046.2813 L10,1046.2813 L10,1029.1484 " fill="#EEEEEE" style="stroke:#000000;stroke-width:1.5;"/><rect fill="none" height="162.7969" style="stroke:#000000;stroke-width:1.5;" width="1236.5" x="10" y="1029.1484"/><text fill="#000000" font-family="sans-serif" font-size="13" font-weight="bold" lengthAdjust="spacing" textLength="111" x="25" y="1042.2153">List Categories</text><polygon fill="#181818" points="593.5,1063.4141,603.5,1067.4141,593.5,1071.4141,597.5,1067.4141" style="stroke:#181818;stroke-width:1.0;"/><line style="stroke:#181818;stroke-width:1.0;" x1="39" x2="599.5" y1="1067.4141" y2="1067.4141"/><text fill="#000000" font-family="sans-serif" font-size="13" lengthAdjust="spacing" textLength="100" x="46" y="1062.3481">View categories</text><polygon fill="#181818" points="888.5,1092.5469,898.5,1096.5469,888.5,1100.5469,892.5,1096.5469" style="stroke:#181818;stroke-width:1.0;"/><line style="stroke:#181818;stroke-width:1.0;" x1="615.5" x2="894.5" y1="1096.5469" y2="1096.5469"/><text fill="#000000" font-family="sans-serif" font-size="13" lengthAdjust="spacing" textLength="115" x="622.5" y="1091.481">getAllCategories()</text><polygon fill="#181818" points="1157.5,1121.6797,1167.5,1125.6797,1157.5,1129.6797,1161.5,1125.6797" style="stroke:#181818;stroke-width:1.0;"/><line style="stroke:#181818;stroke-width:1.0;" x1="900.5" x2="1163.5" y1="1125.6797" y2="1125.6797"/><text fill="#000000" font-family="sans-serif" font-size="13" lengthAdjust="spacing" textLength="112" x="907.5" y="1120.6138">GET /api/category</text><polygon fill="#181818" points="911.5,1150.8125,901.5,1154.8125,911.5,1158.8125,907.5,1154.8125" style="stroke:#181818;stroke-width:1.0;"/><line style="stroke:#181818;stroke-width:1.0;stroke-dasharray:2.0,2.0;" x1="905.5" x2="1168.5" y1="1154.8125" y2="1154.8125"/><text fill="#000000" font-family="sans-serif" font-size="13" lengthAdjust="spacing" textLength="113" x="917.5" y="1149.7466">Return categories</text><polygon fill="#181818" points="621.5,1179.9453,611.5,1183.9453,621.5,1187.9453,617.5,1183.9453" style="stroke:#181818;stroke-width:1.0;"/><line style="stroke:#181818;stroke-width:1.0;stroke-dasharray:2.0,2.0;" x1="615.5" x2="899.5" y1="1183.9453" y2="1183.9453"/><text fill="#000000" font-family="sans-serif" font-size="13" lengthAdjust="spacing" textLength="68" x="627.5" y="1178.8794">Display list</text><path d="M10,1205.9453 L157,1205.9453 L157,1213.0781 L147,1223.0781 L10,1223.0781 L10,1205.9453 " fill="#EEEEEE" style="stroke:#000000;stroke-width:1.5;"/><rect fill="none" height="204.9297" style="stroke:#000000;stroke-width:1.5;" width="1236.5" x="10" y="1205.9453"/><text fill="#000000" font-family="sans-serif" font-size="13" font-weight="bold" lengthAdjust="spacing" textLength="102" x="25" y="1219.0122">Add Category</text><polygon fill="#181818" points="593.5,1240.2109,603.5,1244.2109,593.5,1248.2109,597.5,1244.2109" style="stroke:#181818;stroke-width:1.0;"/><line style="stroke:#181818;stroke-width:1.0;" x1="39" x2="599.5" y1="1244.2109" y2="1244.2109"/><text fill="#000000" font-family="sans-serif" font-size="13" lengthAdjust="spacing" textLength="85" x="46" y="1239.145">Add category</text><line style="stroke:#181818;stroke-width:1.0;" x1="615.5" x2="657.5" y1="1273.3438" y2="1273.3438"/><line style="stroke:#181818;stroke-width:1.0;" x1="657.5" x2="657.5" y1="1273.3438" y2="1286.3438"/><line style="stroke:#181818;stroke-width:1.0;" x1="616.5" x2="657.5" y1="1286.3438" y2="1286.3438"/><polygon fill="#181818" points="626.5,1282.3438,616.5,1286.3438,626.5,1290.3438,622.5,1286.3438" style="stroke:#181818;stroke-width:1.0;"/><text fill="#000000" font-family="sans-serif" font-size="13" lengthAdjust="spacing" textLength="88" x="622.5" y="1268.2778">Validate input</text><polygon fill="#181818" points="888.5,1311.4766,898.5,1315.4766,888.5,1319.4766,892.5,1315.4766" style="stroke:#181818;stroke-width:1.0;"/><line style="stroke:#181818;stroke-width:1.0;" x1="615.5" x2="894.5" y1="1315.4766" y2="1315.4766"/><text fill="#000000" font-family="sans-serif" font-size="13" lengthAdjust="spacing" textLength="138" x="622.5" y="1310.4106">createCategory(data)</text><polygon fill="#181818" points="1157.5,1340.6094,1167.5,1344.6094,1157.5,1348.6094,1161.5,1344.6094" style="stroke:#181818;stroke-width:1.0;"/><line style="stroke:#181818;stroke-width:1.0;" x1="900.5" x2="1163.5" y1="1344.6094" y2="1344.6094"/><text fill="#000000" font-family="sans-serif" font-size="13" lengthAdjust="spacing" textLength="121" x="907.5" y="1339.5435">POST /api/category</text><polygon fill="#181818" points="626.5,1369.7422,616.5,1373.7422,626.5,1377.7422,622.5,1373.7422" style="stroke:#181818;stroke-width:1.0;"/><line style="stroke:#181818;stroke-width:1.0;stroke-dasharray:2.0,2.0;" x1="620.5" x2="1168.5" y1="1373.7422" y2="1373.7422"/><text fill="#000000" font-family="sans-serif" font-size="13" lengthAdjust="spacing" textLength="116" x="632.5" y="1368.6763">Success response</text><polygon fill="#181818" points="489,1398.875,479,1402.875,489,1406.875,485,1402.875" style="stroke:#181818;stroke-width:1.0;"/><line style="stroke:#181818;stroke-width:1.0;" x1="483" x2="609.5" y1="1402.875" y2="1402.875"/><text fill="#000000" font-family="sans-serif" font-size="13" lengthAdjust="spacing" textLength="96" x="495" y="1397.8091">Navigate to list</text><rect fill="#EEEEEE" height="3" style="stroke:#EEEEEE;stroke-width:1.0;" width="1408.5" x="0" y="1438.4414"/><line style="stroke:#000000;stroke-width:1.0;" x1="0" x2="1408.5" y1="1438.4414" y2="1438.4414"/><line style="stroke:#000000;stroke-width:1.0;" x1="0" x2="1408.5" y1="1441.4414" y2="1441.4414"/><rect fill="#EEEEEE" height="23.1328" style="stroke:#000000;stroke-width:2.0;" width="170" x="619.25" y="1427.875"/><text fill="#000000" font-family="sans-serif" font-size="13" font-weight="bold" lengthAdjust="spacing" textLength="151" x="625.25" y="1443.9419">Theme Management</text><polygon fill="#181818" points="314,1478.1406,324,1482.1406,314,1486.1406,318,1482.1406" style="stroke:#181818;stroke-width:1.0;"/><line style="stroke:#181818;stroke-width:1.0;" x1="39" x2="320" y1="1482.1406" y2="1482.1406"/><text fill="#000000" font-family="sans-serif" font-size="13" lengthAdjust="spacing" textLength="88" x="46" y="1477.0747">Toggle theme</text><line style="stroke:#181818;stroke-width:1.0;" x1="336" x2="378" y1="1511.2734" y2="1511.2734"/><line style="stroke:#181818;stroke-width:1.0;" x1="378" x2="378" y1="1511.2734" y2="1524.2734"/><line style="stroke:#181818;stroke-width:1.0;" x1="337" x2="378" y1="1524.2734" y2="1524.2734"/><polygon fill="#181818" points="347,1520.2734,337,1524.2734,347,1528.2734,343,1524.2734" style="stroke:#181818;stroke-width:1.0;"/><text fill="#000000" font-family="sans-serif" font-size="13" lengthAdjust="spacing" textLength="123" x="343" y="1506.2075">Switch theme class</text><polygon fill="#181818" points="1308,1549.4063,1318,1553.4063,1308,1557.4063,1312,1553.4063" style="stroke:#181818;stroke-width:1.0;"/><line style="stroke:#181818;stroke-width:1.0;" x1="336" x2="1314" y1="1553.4063" y2="1553.4063"/><text fill="#000000" font-family="sans-serif" font-size="13" lengthAdjust="spacing" textLength="105" x="343" y="1548.3403">Save preference</text><polygon fill="#181818" points="342,1578.5391,332,1582.5391,342,1586.5391,338,1582.5391" style="stroke:#181818;stroke-width:1.0;"/><line style="stroke:#181818;stroke-width:1.0;stroke-dasharray:2.0,2.0;" x1="336" x2="1319" y1="1582.5391" y2="1582.5391"/><text fill="#000000" font-family="sans-serif" font-size="13" lengthAdjust="spacing" textLength="84" x="348" y="1577.4731">Confirm save</text><rect fill="#EEEEEE" height="3" style="stroke:#EEEEEE;stroke-width:1.0;" width="1408.5" x="0" y="1611.1055"/><line style="stroke:#000000;stroke-width:1.0;" x1="0" x2="1408.5" y1="1611.1055" y2="1611.1055"/><line style="stroke:#000000;stroke-width:1.0;" x1="0" x2="1408.5" y1="1614.1055" y2="1614.1055"/><rect fill="#EEEEEE" height="23.1328" style="stroke:#000000;stroke-width:2.0;" width="167" x="620.75" y="1600.5391"/><text fill="#000000" font-family="sans-serif" font-size="13" font-weight="bold" lengthAdjust="spacing" textLength="148" x="626.75" y="1616.606">Image Management</text><polygon fill="#181818" points="593.5,1650.8047,603.5,1654.8047,593.5,1658.8047,597.5,1654.8047" style="stroke:#181818;stroke-width:1.0;"/><line style="stroke:#181818;stroke-width:1.0;" x1="39" x2="599.5" y1="1654.8047" y2="1654.8047"/><text fill="#000000" font-family="sans-serif" font-size="13" lengthAdjust="spacing" textLength="133" x="46" y="1649.7388">Open image selector</text><polygon fill="#181818" points="1008.5,1679.9375,1018.5,1683.9375,1008.5,1687.9375,1012.5,1683.9375" style="stroke:#181818;stroke-width:1.0;"/><line style="stroke:#181818;stroke-width:1.0;" x1="615.5" x2="1014.5" y1="1683.9375" y2="1683.9375"/><text fill="#000000" font-family="sans-serif" font-size="13" lengthAdjust="spacing" textLength="78" x="622.5" y="1678.8716">getImages()</text><polygon fill="#181818" points="1157.5,1709.0703,1167.5,1713.0703,1157.5,1717.0703,1161.5,1713.0703" style="stroke:#181818;stroke-width:1.0;"/><line style="stroke:#181818;stroke-width:1.0;" x1="1020.5" x2="1163.5" y1="1713.0703" y2="1713.0703"/><text fill="#000000" font-family="sans-serif" font-size="13" lengthAdjust="spacing" textLength="103" x="1027.5" y="1708.0044">GET /api/images</text><polygon fill="#181818" points="626.5,1738.2031,616.5,1742.2031,626.5,1746.2031,622.5,1742.2031" style="stroke:#181818;stroke-width:1.0;"/><line style="stroke:#181818;stroke-width:1.0;stroke-dasharray:2.0,2.0;" x1="620.5" x2="1168.5" y1="1742.2031" y2="1742.2031"/><text fill="#000000" font-family="sans-serif" font-size="13" lengthAdjust="spacing" textLength="62" x="632.5" y="1737.1372">Image list</text><polygon fill="#181818" points="593.5,1767.3359,603.5,1771.3359,593.5,1775.3359,597.5,1771.3359" style="stroke:#181818;stroke-width:1.0;"/><line style="stroke:#181818;stroke-width:1.0;" x1="39" x2="599.5" y1="1771.3359" y2="1771.3359"/><text fill="#000000" font-family="sans-serif" font-size="13" lengthAdjust="spacing" textLength="84" x="46" y="1766.27">Select image</text><line style="stroke:#181818;stroke-width:1.0;" x1="615.5" x2="657.5" y1="1800.4688" y2="1800.4688"/><line style="stroke:#181818;stroke-width:1.0;" x1="657.5" x2="657.5" y1="1800.4688" y2="1813.4688"/><line style="stroke:#181818;stroke-width:1.0;" x1="616.5" x2="657.5" y1="1813.4688" y2="1813.4688"/><polygon fill="#181818" points="626.5,1809.4688,616.5,1813.4688,626.5,1817.4688,622.5,1813.4688" style="stroke:#181818;stroke-width:1.0;"/><text fill="#000000" font-family="sans-serif" font-size="13" lengthAdjust="spacing" textLength="99" x="622.5" y="1795.4028">Update preview</text><polygon fill="#181818" points="50,1838.6016,40,1842.6016,50,1846.6016,46,1842.6016" style="stroke:#181818;stroke-width:1.0;"/><line style="stroke:#181818;stroke-width:1.0;stroke-dasharray:2.0,2.0;" x1="44" x2="609.5" y1="1842.6016" y2="1842.6016"/><text fill="#000000" font-family="sans-serif" font-size="13" lengthAdjust="spacing" textLength="136" x="56" y="1837.5356">Show selected image</text><!--MD5=[949c1dbc492ad7494b2fcc2d1177c5a3]
@startuml
skinparam ParticipantPadding 20
skinparam BoxPadding 10

actor User

box "Frontend Components" #LightYellow
    participant "App\nComponent" as App
    participant "Navbar\nComponent" as Nav
    participant "Router" as Router
    participant "Feature\nComponents" as Feature
end box

box "Frontend Services" #LightGreen
    participant "Blog Post\nService" as BlogService
    participant "Category\nService" as CatService
    participant "Image\nService" as ImgService
end box

box "State & HTTP" #LightBlue
    participant "HTTP Client" as HTTP
    participant "Local Storage" as Storage
end box

== Application Initialization ==
User -> App: Access application
activate App
App -> Nav: Initialize navigation
activate Nav
Nav -> Storage: Check theme preference
Storage - -> Nav: Return saved theme
Nav -> Nav: Apply theme
deactivate Nav

== Navigation Flow ==
User -> Nav: Click menu item
activate Nav
Nav -> Router: Navigate to route
Router -> Feature: Load component
deactivate Nav

== Blog Post Management ==
group List Posts
    User -> Feature: View blog posts
    activate Feature
    Feature -> BlogService: getAllPosts()
    BlogService -> HTTP: GET /api/blogpost
    HTTP - -> BlogService: Return posts
    BlogService - -> Feature: Map & display
    deactivate Feature
end

group Create Post
    User -> Feature: Create new post
    activate Feature
    Feature -> ImgService: Upload image
    ImgService -> HTTP: POST /api/image
    HTTP - -> Feature: Image URL
    
    User -> Feature: Fill post details
    Feature -> Feature: Validate form
    Feature -> BlogService: createPost(data)
    BlogService -> HTTP: POST /api/blogpost
    HTTP - -> Feature: Success response
    Feature -> Router: Navigate to list
    deactivate Feature
end

== Category Management ==
group List Categories
    User -> Feature: View categories
    activate Feature
    Feature -> CatService: getAllCategories()
    CatService -> HTTP: GET /api/category
    HTTP - -> CatService: Return categories
    CatService - -> Feature: Display list
    deactivate Feature
end

group Add Category
    User -> Feature: Add category
    activate Feature
    Feature -> Feature: Validate input
    Feature -> CatService: createCategory(data)
    CatService -> HTTP: POST /api/category
    HTTP - -> Feature: Success response
    Feature -> Router: Navigate to list
    deactivate Feature
end

== Theme Management ==
User -> Nav: Toggle theme
activate Nav
Nav -> Nav: Switch theme class
Nav -> Storage: Save preference
Storage - -> Nav: Confirm save
deactivate Nav

== Image Management ==
User -> Feature: Open image selector 
activate Feature
Feature -> ImgService: getImages()
ImgService -> HTTP: GET /api/images
HTTP - -> Feature: Image list

User -> Feature: Select image
Feature -> Feature: Update preview
Feature - -> User: Show selected image
deactivate Feature
@enduml

PlantUML version 1.2022.7(Mon Aug 22 17:01:30 UTC 2022)
(GPL source distribution)
Java Runtime: OpenJDK Runtime Environment
JVM: OpenJDK 64-Bit Server VM
Default Encoding: UTF-8
Language: en
Country: null
--></g></svg>