<?xml version="1.0" encoding="UTF-8" standalone="no"?><svg xmlns="http://www.w3.org/2000/svg" xmlns:xlink="http://www.w3.org/1999/xlink" contentStyleType="text/css" height="2851px" preserveAspectRatio="none" style="width:1049px;height:2851px;background:#FFFFFF;" version="1.1" viewBox="0 0 1049 2851" width="1049px" zoomAndPan="magnify"><defs/><g><rect fill="#FFFFE0" height="2839.4141" style="stroke:#181818;stroke-width:0.5;" width="392" x="16" y="6"/><text fill="#000000" font-family="sans-serif" font-size="13" font-weight="bold" lengthAdjust="spacing" textLength="141" x="141.5" y="18.0669">Frontend (Angular)</text><rect fill="#ADD8E6" height="2839.4141" style="stroke:#181818;stroke-width:0.5;" width="509" x="517.5" y="6"/><text fill="#000000" font-family="sans-serif" font-size="13" font-weight="bold" lengthAdjust="spacing" textLength="153" x="695.5" y="18.0669">Backend (.NET Core)</text><rect fill="none" height="117.5313" style="stroke:#000000;stroke-width:1.5;" width="404" x="10" y="352.8906"/><rect fill="none" height="191.9297" style="stroke:#000000;stroke-width:1.5;" width="710.5" x="322" y="484.4219"/><rect fill="none" height="117.5313" style="stroke:#000000;stroke-width:1.5;" width="487.5" x="133" y="690.3516"/><rect fill="none" height="159.6641" style="stroke:#000000;stroke-width:1.5;" width="314" x="10" y="865.0156"/><rect fill="none" height="75.3984" style="stroke:#000000;stroke-width:1.5;" width="404" x="10" y="1038.6797"/><rect fill="none" height="133.6641" style="stroke:#000000;stroke-width:1.5;" width="710.5" x="322" y="1128.0781"/><rect fill="none" height="75.3984" style="stroke:#000000;stroke-width:1.5;" width="281" x="133" y="1275.7422"/><rect fill="none" height="133.6641" style="stroke:#000000;stroke-width:1.5;" width="710.5" x="322" y="1365.1406"/><rect fill="none" height="117.5313" style="stroke:#000000;stroke-width:1.5;" width="487.5" x="133" y="1512.8047"/><rect fill="none" height="75.3984" style="stroke:#000000;stroke-width:1.5;" width="404" x="10" y="1687.4688"/><rect fill="none" height="191.9297" style="stroke:#000000;stroke-width:1.5;" width="710.5" x="322" y="1776.8672"/><rect fill="none" height="117.5313" style="stroke:#000000;stroke-width:1.5;" width="487.5" x="133" y="1982.7969"/><rect fill="none" height="75.3984" style="stroke:#000000;stroke-width:1.5;" width="404" x="10" y="2157.4609"/><rect fill="none" height="133.6641" style="stroke:#000000;stroke-width:1.5;" width="710.5" x="322" y="2246.8594"/><rect fill="none" height="104.5313" style="stroke:#000000;stroke-width:1.5;" width="1022.5" x="10" y="2394.5234"/><rect fill="none" height="133.6641" style="stroke:#000000;stroke-width:1.5;" width="710.5" x="322" y="2513.0547"/><rect fill="none" height="88.3984" style="stroke:#000000;stroke-width:1.5;" width="899.5" x="133" y="2660.7188"/><line style="stroke:#181818;stroke-width:0.5;stroke-dasharray:5.0,5.0;" x1="39" x2="39" y1="101.4297" y2="2766.1172"/><line style="stroke:#181818;stroke-width:0.5;stroke-dasharray:5.0,5.0;" x1="195" x2="195" y1="101.4297" y2="2766.1172"/><line style="stroke:#181818;stroke-width:0.5;stroke-dasharray:5.0,5.0;" x1="368" x2="368" y1="101.4297" y2="2766.1172"/><line style="stroke:#181818;stroke-width:0.5;stroke-dasharray:5.0,5.0;" x1="565.5" x2="565.5" y1="101.4297" y2="2766.1172"/><line style="stroke:#181818;stroke-width:0.5;stroke-dasharray:5.0,5.0;" x1="715" x2="715" y1="101.4297" y2="2766.1172"/><line style="stroke:#181818;stroke-width:0.5;stroke-dasharray:5.0,5.0;" x1="839" x2="839" y1="101.4297" y2="2766.1172"/><line style="stroke:#181818;stroke-width:0.5;stroke-dasharray:5.0,5.0;" x1="978.5" x2="978.5" y1="101.4297" y2="2766.1172"/><text fill="#000000" font-family="sans-serif" font-size="14" lengthAdjust="spacing" textLength="32" x="20" y="98.1279">User</text><ellipse cx="39" cy="33.6328" fill="#E2E2F0" rx="8" ry="8" style="stroke:#181818;stroke-width:0.5;"/><path d="M39,41.6328 L39,68.6328 M26,49.6328 L52,49.6328 M39,68.6328 L26,83.6328 M39,68.6328 L52,83.6328 " fill="none" style="stroke:#181818;stroke-width:0.5;"/><text fill="#000000" font-family="sans-serif" font-size="14" lengthAdjust="spacing" textLength="32" x="20" y="2778.1123">User</text><ellipse cx="39" cy="2789.9141" fill="#E2E2F0" rx="8" ry="8" style="stroke:#181818;stroke-width:0.5;"/><path d="M39,2797.9141 L39,2824.9141 M26,2805.9141 L52,2805.9141 M39,2824.9141 L26,2839.9141 M39,2824.9141 L52,2839.9141 " fill="none" style="stroke:#181818;stroke-width:0.5;"/><rect fill="#E2E2F0" height="46.5938" rx="2.5" ry="2.5" style="stroke:#181818;stroke-width:0.5;" width="104" x="143" y="53.8359"/><text fill="#000000" font-family="sans-serif" font-size="14" lengthAdjust="spacing" textLength="52" x="169" y="73.8311">Angular</text><text fill="#000000" font-family="sans-serif" font-size="14" lengthAdjust="spacing" textLength="90" x="150" y="90.1279">Components</text><rect fill="#E2E2F0" height="46.5938" rx="2.5" ry="2.5" style="stroke:#181818;stroke-width:0.5;" width="104" x="143" y="2765.1172"/><text fill="#000000" font-family="sans-serif" font-size="14" lengthAdjust="spacing" textLength="52" x="169" y="2785.1123">Angular</text><text fill="#000000" font-family="sans-serif" font-size="14" lengthAdjust="spacing" textLength="90" x="150" y="2801.4092">Components</text><rect fill="#E2E2F0" height="46.5938" rx="2.5" ry="2.5" style="stroke:#181818;stroke-width:0.5;" width="72" x="332" y="53.8359"/><text fill="#000000" font-family="sans-serif" font-size="14" lengthAdjust="spacing" textLength="52" x="342" y="73.8311">Angular</text><text fill="#000000" font-family="sans-serif" font-size="14" lengthAdjust="spacing" textLength="58" x="339" y="90.1279">Services</text><rect fill="#E2E2F0" height="46.5938" rx="2.5" ry="2.5" style="stroke:#181818;stroke-width:0.5;" width="72" x="332" y="2765.1172"/><text fill="#000000" font-family="sans-serif" font-size="14" lengthAdjust="spacing" textLength="52" x="342" y="2785.1123">Angular</text><text fill="#000000" font-family="sans-serif" font-size="14" lengthAdjust="spacing" textLength="58" x="339" y="2801.4092">Services</text><rect fill="#E2E2F0" height="46.5938" rx="2.5" ry="2.5" style="stroke:#181818;stroke-width:0.5;" width="89" x="521.5" y="53.8359"/><text fill="#000000" font-family="sans-serif" font-size="14" lengthAdjust="spacing" textLength="21" x="555.5" y="73.8311">API</text><text fill="#000000" font-family="sans-serif" font-size="14" lengthAdjust="spacing" textLength="75" x="528.5" y="90.1279">Controllers</text><rect fill="#E2E2F0" height="46.5938" rx="2.5" ry="2.5" style="stroke:#181818;stroke-width:0.5;" width="89" x="521.5" y="2765.1172"/><text fill="#000000" font-family="sans-serif" font-size="14" lengthAdjust="spacing" textLength="21" x="555.5" y="2785.1123">API</text><text fill="#000000" font-family="sans-serif" font-size="14" lengthAdjust="spacing" textLength="75" x="528.5" y="2801.4092">Controllers</text><rect fill="#E2E2F0" height="46.5938" rx="2.5" ry="2.5" style="stroke:#181818;stroke-width:0.5;" width="78" x="676" y="53.8359"/><text fill="#000000" font-family="sans-serif" font-size="14" lengthAdjust="spacing" textLength="64" x="683" y="73.8311">Business</text><text fill="#000000" font-family="sans-serif" font-size="14" lengthAdjust="spacing" textLength="58" x="686" y="90.1279">Services</text><rect fill="#E2E2F0" height="46.5938" rx="2.5" ry="2.5" style="stroke:#181818;stroke-width:0.5;" width="78" x="676" y="2765.1172"/><text fill="#000000" font-family="sans-serif" font-size="14" lengthAdjust="spacing" textLength="64" x="683" y="2785.1123">Business</text><text fill="#000000" font-family="sans-serif" font-size="14" lengthAdjust="spacing" textLength="58" x="686" y="2801.4092">Services</text><rect fill="#E2E2F0" height="30.2969" rx="2.5" ry="2.5" style="stroke:#181818;stroke-width:0.5;" width="88" x="795" y="70.1328"/><text fill="#000000" font-family="sans-serif" font-size="14" lengthAdjust="spacing" textLength="74" x="802" y="90.1279">Repository</text><rect fill="#E2E2F0" height="30.2969" rx="2.5" ry="2.5" style="stroke:#181818;stroke-width:0.5;" width="88" x="795" y="2765.1172"/><text fill="#000000" font-family="sans-serif" font-size="14" lengthAdjust="spacing" textLength="74" x="802" y="2785.1123">Repository</text><text fill="#000000" font-family="sans-serif" font-size="14" lengthAdjust="spacing" textLength="81" x="935.5" y="98.1279">PostgreSQL</text><path d="M961,49.1328 C961,39.1328 979,39.1328 979,39.1328 C979,39.1328 997,39.1328 997,49.1328 L997,75.1328 C997,85.1328 979,85.1328 979,85.1328 C979,85.1328 961,85.1328 961,75.1328 L961,49.1328 " fill="#E2E2F0" style="stroke:#181818;stroke-width:1.5;"/><path d="M961,49.1328 C961,59.1328 979,59.1328 979,59.1328 C979,59.1328 997,59.1328 997,49.1328 " fill="none" style="stroke:#181818;stroke-width:1.5;"/><text fill="#000000" font-family="sans-serif" font-size="14" lengthAdjust="spacing" textLength="81" x="935.5" y="2778.1123">PostgreSQL</text><path d="M961,2791.4141 C961,2781.4141 979,2781.4141 979,2781.4141 C979,2781.4141 997,2781.4141 997,2791.4141 L997,2817.4141 C997,2827.4141 979,2827.4141 979,2827.4141 C979,2827.4141 961,2827.4141 961,2817.4141 L961,2791.4141 " fill="#E2E2F0" style="stroke:#181818;stroke-width:1.5;"/><path d="M961,2791.4141 C961,2801.4141 979,2801.4141 979,2801.4141 C979,2801.4141 997,2801.4141 997,2791.4141 " fill="none" style="stroke:#181818;stroke-width:1.5;"/><path d="M14,116.4297 L14,201.4297 L393,201.4297 L393,126.4297 L383,116.4297 L14,116.4297 " fill="#ADD8E6" style="stroke:#181818;stroke-width:0.5;"/><path d="M383,116.4297 L383,126.4297 L393,126.4297 L383,116.4297 " fill="#ADD8E6" style="stroke:#181818;stroke-width:0.5;"/><text fill="#000000" font-family="sans-serif" font-size="13" lengthAdjust="spacing" textLength="100" x="106.5" y="133.4966">Frontend Layer:</text><text fill="#000000" font-family="sans-serif" font-size="13" lengthAdjust="spacing" textLength="185" x="106.5" y="148.6294">- User Interface Components</text><text fill="#000000" font-family="sans-serif" font-size="13" lengthAdjust="spacing" textLength="109" x="106.5" y="163.7622">- Form Validation</text><text fill="#000000" font-family="sans-serif" font-size="13" lengthAdjust="spacing" textLength="133" x="106.5" y="178.895">- State Management</text><text fill="#000000" font-family="sans-serif" font-size="13" lengthAdjust="spacing" textLength="126" x="106.5" y="194.0278">- HTTP Service Calls</text><path d="M524,212.0938 L524,297.0938 L1020,297.0938 L1020,222.0938 L1010,212.0938 L524,212.0938 " fill="#FFFFE0" style="stroke:#181818;stroke-width:0.5;"/><path d="M1010,212.0938 L1010,222.0938 L1020,222.0938 L1010,212.0938 " fill="#FFFFE0" style="stroke:#181818;stroke-width:0.5;"/><text fill="#000000" font-family="sans-serif" font-size="13" lengthAdjust="spacing" textLength="98" x="695" y="229.1606">Backend Layer:</text><text fill="#000000" font-family="sans-serif" font-size="13" lengthAdjust="spacing" textLength="132" x="695" y="244.2935">- REST API Endpoints</text><text fill="#000000" font-family="sans-serif" font-size="13" lengthAdjust="spacing" textLength="103" x="695" y="259.4263">- Business Logic</text><text fill="#000000" font-family="sans-serif" font-size="13" lengthAdjust="spacing" textLength="89" x="695" y="274.5591">- Data Access</text><text fill="#000000" font-family="sans-serif" font-size="13" lengthAdjust="spacing" textLength="145" x="695" y="289.6919">- Database Operations</text><rect fill="#EEEEEE" height="3" style="stroke:#EEEEEE;stroke-width:1.0;" width="1042.5" x="0" y="323.3242"/><line style="stroke:#000000;stroke-width:1.0;" x1="0" x2="1042.5" y1="323.3242" y2="323.3242"/><line style="stroke:#000000;stroke-width:1.0;" x1="0" x2="1042.5" y1="326.3242" y2="326.3242"/><rect fill="#EEEEEE" height="23.1328" style="stroke:#000000;stroke-width:2.0;" width="184" x="429.25" y="312.7578"/><text fill="#000000" font-family="sans-serif" font-size="13" font-weight="bold" lengthAdjust="spacing" textLength="165" x="435.25" y="328.8247">1. Authentication Flow</text><path d="M10,352.8906 L122,352.8906 L122,360.0234 L112,370.0234 L10,370.0234 L10,352.8906 " fill="#EEEEEE" style="stroke:#000000;stroke-width:1.5;"/><rect fill="none" height="117.5313" style="stroke:#000000;stroke-width:1.5;" width="404" x="10" y="352.8906"/><text fill="#000000" font-family="sans-serif" font-size="13" font-weight="bold" lengthAdjust="spacing" textLength="67" x="25" y="365.9575">Frontend</text><polygon fill="#181818" points="183,387.1563,193,391.1563,183,395.1563,187,391.1563" style="stroke:#181818;stroke-width:1.0;"/><line style="stroke:#181818;stroke-width:1.0;" x1="39" x2="189" y1="391.1563" y2="391.1563"/><text fill="#000000" font-family="sans-serif" font-size="13" lengthAdjust="spacing" textLength="132" x="46" y="386.0903">1.1 Enter credentials</text><line style="stroke:#181818;stroke-width:1.0;" x1="195" x2="237" y1="420.2891" y2="420.2891"/><line style="stroke:#181818;stroke-width:1.0;" x1="237" x2="237" y1="420.2891" y2="433.2891"/><line style="stroke:#181818;stroke-width:1.0;" x1="196" x2="237" y1="433.2891" y2="433.2891"/><polygon fill="#181818" points="206,429.2891,196,433.2891,206,437.2891,202,433.2891" style="stroke:#181818;stroke-width:1.0;"/><text fill="#000000" font-family="sans-serif" font-size="13" lengthAdjust="spacing" textLength="112" x="202" y="415.2231">1.2 Validate input</text><polygon fill="#181818" points="356,458.4219,366,462.4219,356,466.4219,360,462.4219" style="stroke:#181818;stroke-width:1.0;"/><line style="stroke:#181818;stroke-width:1.0;" x1="195" x2="362" y1="462.4219" y2="462.4219"/><text fill="#000000" font-family="sans-serif" font-size="13" lengthAdjust="spacing" textLength="134" x="202" y="457.356">1.3 login(credentials)</text><path d="M322,484.4219 L431,484.4219 L431,491.5547 L421,501.5547 L322,501.5547 L322,484.4219 " fill="#EEEEEE" style="stroke:#000000;stroke-width:1.5;"/><rect fill="none" height="191.9297" style="stroke:#000000;stroke-width:1.5;" width="710.5" x="322" y="484.4219"/><text fill="#000000" font-family="sans-serif" font-size="13" font-weight="bold" lengthAdjust="spacing" textLength="64" x="337" y="497.4888">Backend</text><polygon fill="#181818" points="554,518.6875,564,522.6875,554,526.6875,558,522.6875" style="stroke:#181818;stroke-width:1.0;"/><line style="stroke:#181818;stroke-width:1.0;" x1="368" x2="560" y1="522.6875" y2="522.6875"/><text fill="#000000" font-family="sans-serif" font-size="13" lengthAdjust="spacing" textLength="152" x="375" y="517.6216">1.4 POST /api/auth/login</text><polygon fill="#181818" points="703,547.8203,713,551.8203,703,555.8203,707,551.8203" style="stroke:#181818;stroke-width:1.0;"/><line style="stroke:#181818;stroke-width:1.0;" x1="566" x2="709" y1="551.8203" y2="551.8203"/><text fill="#000000" font-family="sans-serif" font-size="13" lengthAdjust="spacing" textLength="116" x="573" y="546.7544">1.5 ValidateUser()</text><polygon fill="#181818" points="827,576.9531,837,580.9531,827,584.9531,831,580.9531" style="stroke:#181818;stroke-width:1.0;"/><line style="stroke:#181818;stroke-width:1.0;" x1="715" x2="833" y1="580.9531" y2="580.9531"/><text fill="#000000" font-family="sans-serif" font-size="13" lengthAdjust="spacing" textLength="87" x="722" y="575.8872">1.6 GetUser()</text><polygon fill="#181818" points="967,606.0859,977,610.0859,967,614.0859,971,610.0859" style="stroke:#181818;stroke-width:1.0;"/><line style="stroke:#181818;stroke-width:1.0;" x1="839" x2="973" y1="610.0859" y2="610.0859"/><text fill="#000000" font-family="sans-serif" font-size="13" lengthAdjust="spacing" textLength="113" x="846" y="605.02">1.7 SELECT Users</text><polygon fill="#181818" points="726,635.2188,716,639.2188,726,643.2188,722,639.2188" style="stroke:#181818;stroke-width:1.0;"/><line style="stroke:#181818;stroke-width:1.0;stroke-dasharray:2.0,2.0;" x1="720" x2="978" y1="639.2188" y2="639.2188"/><text fill="#000000" font-family="sans-serif" font-size="13" lengthAdjust="spacing" textLength="109" x="732" y="634.1528">1.8 Generate JWT</text><polygon fill="#181818" points="577,664.3516,567,668.3516,577,672.3516,573,668.3516" style="stroke:#181818;stroke-width:1.0;"/><line style="stroke:#181818;stroke-width:1.0;stroke-dasharray:2.0,2.0;" x1="571" x2="714" y1="668.3516" y2="668.3516"/><text fill="#000000" font-family="sans-serif" font-size="13" lengthAdjust="spacing" textLength="125" x="583" y="663.2856">1.9 Token response</text><path d="M133,690.3516 L322,690.3516 L322,697.4844 L312,707.4844 L133,707.4844 L133,690.3516 " fill="#EEEEEE" style="stroke:#000000;stroke-width:1.5;"/><rect fill="none" height="117.5313" style="stroke:#000000;stroke-width:1.5;" width="487.5" x="133" y="690.3516"/><text fill="#000000" font-family="sans-serif" font-size="13" font-weight="bold" lengthAdjust="spacing" textLength="144" x="148" y="703.4185">Frontend Response</text><polygon fill="#181818" points="379,724.6172,369,728.6172,379,732.6172,375,728.6172" style="stroke:#181818;stroke-width:1.0;"/><line style="stroke:#181818;stroke-width:1.0;stroke-dasharray:2.0,2.0;" x1="373" x2="565" y1="728.6172" y2="728.6172"/><text fill="#000000" font-family="sans-serif" font-size="13" lengthAdjust="spacing" textLength="114" x="385" y="723.5513">1.10 Return token</text><line style="stroke:#181818;stroke-width:1.0;" x1="368" x2="410" y1="757.75" y2="757.75"/><line style="stroke:#181818;stroke-width:1.0;" x1="410" x2="410" y1="757.75" y2="770.75"/><line style="stroke:#181818;stroke-width:1.0;" x1="369" x2="410" y1="770.75" y2="770.75"/><polygon fill="#181818" points="379,766.75,369,770.75,379,774.75,375,770.75" style="stroke:#181818;stroke-width:1.0;"/><text fill="#000000" font-family="sans-serif" font-size="13" lengthAdjust="spacing" textLength="107" x="375" y="752.6841">1.11 Store token</text><polygon fill="#181818" points="206,795.8828,196,799.8828,206,803.8828,202,799.8828" style="stroke:#181818;stroke-width:1.0;"/><line style="stroke:#181818;stroke-width:1.0;stroke-dasharray:2.0,2.0;" x1="200" x2="367" y1="799.8828" y2="799.8828"/><text fill="#000000" font-family="sans-serif" font-size="13" lengthAdjust="spacing" textLength="149" x="212" y="794.8169">1.12 Update auth state</text><rect fill="#EEEEEE" height="3" style="stroke:#EEEEEE;stroke-width:1.0;" width="1042.5" x="0" y="835.4492"/><line style="stroke:#000000;stroke-width:1.0;" x1="0" x2="1042.5" y1="835.4492" y2="835.4492"/><line style="stroke:#000000;stroke-width:1.0;" x1="0" x2="1042.5" y1="838.4492" y2="838.4492"/><rect fill="#EEEEEE" height="23.1328" style="stroke:#000000;stroke-width:2.0;" width="176" x="433.25" y="824.8828"/><text fill="#000000" font-family="sans-serif" font-size="13" font-weight="bold" lengthAdjust="spacing" textLength="157" x="439.25" y="840.9497">2. Blog Post Creation</text><path d="M10,865.0156 L214,865.0156 L214,872.1484 L204,882.1484 L10,882.1484 L10,865.0156 " fill="#EEEEEE" style="stroke:#000000;stroke-width:1.5;"/><rect fill="none" height="159.6641" style="stroke:#000000;stroke-width:1.5;" width="314" x="10" y="865.0156"/><text fill="#000000" font-family="sans-serif" font-size="13" font-weight="bold" lengthAdjust="spacing" textLength="159" x="25" y="878.0825">Frontend Preparation</text><polygon fill="#181818" points="183,899.2813,193,903.2813,183,907.2813,187,903.2813" style="stroke:#181818;stroke-width:1.0;"/><line style="stroke:#181818;stroke-width:1.0;" x1="39" x2="189" y1="903.2813" y2="903.2813"/><text fill="#000000" font-family="sans-serif" font-size="13" lengthAdjust="spacing" textLength="130" x="46" y="898.2153">2.1 Click create post</text><line style="stroke:#181818;stroke-width:1.0;" x1="195" x2="237" y1="932.4141" y2="932.4141"/><line style="stroke:#181818;stroke-width:1.0;" x1="237" x2="237" y1="932.4141" y2="945.4141"/><line style="stroke:#181818;stroke-width:1.0;" x1="196" x2="237" y1="945.4141" y2="945.4141"/><polygon fill="#181818" points="206,941.4141,196,945.4141,206,949.4141,202,945.4141" style="stroke:#181818;stroke-width:1.0;"/><text fill="#000000" font-family="sans-serif" font-size="13" lengthAdjust="spacing" textLength="89" x="202" y="927.3481">2.2 Load form</text><polygon fill="#181818" points="183,970.5469,193,974.5469,183,978.5469,187,974.5469" style="stroke:#181818;stroke-width:1.0;"/><line style="stroke:#181818;stroke-width:1.0;" x1="39" x2="189" y1="974.5469" y2="974.5469"/><text fill="#000000" font-family="sans-serif" font-size="13" lengthAdjust="spacing" textLength="86" x="46" y="969.481">2.3 Fill details</text><line style="stroke:#181818;stroke-width:1.0;" x1="195" x2="237" y1="1003.6797" y2="1003.6797"/><line style="stroke:#181818;stroke-width:1.0;" x1="237" x2="237" y1="1003.6797" y2="1016.6797"/><line style="stroke:#181818;stroke-width:1.0;" x1="196" x2="237" y1="1016.6797" y2="1016.6797"/><polygon fill="#181818" points="206,1012.6797,196,1016.6797,206,1020.6797,202,1016.6797" style="stroke:#181818;stroke-width:1.0;"/><text fill="#000000" font-family="sans-serif" font-size="13" lengthAdjust="spacing" textLength="110" x="202" y="998.6138">2.4 Validate form</text><path d="M10,1038.6797 L230,1038.6797 L230,1045.8125 L220,1055.8125 L10,1055.8125 L10,1038.6797 " fill="#EEEEEE" style="stroke:#000000;stroke-width:1.5;"/><rect fill="none" height="75.3984" style="stroke:#000000;stroke-width:1.5;" width="404" x="10" y="1038.6797"/><text fill="#000000" font-family="sans-serif" font-size="13" font-weight="bold" lengthAdjust="spacing" textLength="175" x="25" y="1051.7466">Frontend Image Upload</text><polygon fill="#181818" points="183,1072.9453,193,1076.9453,183,1080.9453,187,1076.9453" style="stroke:#181818;stroke-width:1.0;"/><line style="stroke:#181818;stroke-width:1.0;" x1="39" x2="189" y1="1076.9453" y2="1076.9453"/><text fill="#000000" font-family="sans-serif" font-size="13" lengthAdjust="spacing" textLength="108" x="46" y="1071.8794">2.5 Select image</text><polygon fill="#181818" points="356,1102.0781,366,1106.0781,356,1110.0781,360,1106.0781" style="stroke:#181818;stroke-width:1.0;"/><line style="stroke:#181818;stroke-width:1.0;" x1="195" x2="362" y1="1106.0781" y2="1106.0781"/><text fill="#000000" font-family="sans-serif" font-size="13" lengthAdjust="spacing" textLength="135" x="202" y="1101.0122">2.6 uploadImage(file)</text><path d="M322,1128.0781 L568,1128.0781 L568,1135.2109 L558,1145.2109 L322,1145.2109 L322,1128.0781 " fill="#EEEEEE" style="stroke:#000000;stroke-width:1.5;"/><rect fill="none" height="133.6641" style="stroke:#000000;stroke-width:1.5;" width="710.5" x="322" y="1128.0781"/><text fill="#000000" font-family="sans-serif" font-size="13" font-weight="bold" lengthAdjust="spacing" textLength="201" x="337" y="1141.145">Backend Image Processing</text><polygon fill="#181818" points="554,1162.3438,564,1166.3438,554,1170.3438,558,1166.3438" style="stroke:#181818;stroke-width:1.0;"/><line style="stroke:#181818;stroke-width:1.0;" x1="368" x2="560" y1="1166.3438" y2="1166.3438"/><text fill="#000000" font-family="sans-serif" font-size="13" lengthAdjust="spacing" textLength="129" x="375" y="1161.2778">2.7 POST /api/image</text><polygon fill="#181818" points="703,1191.4766,713,1195.4766,703,1199.4766,707,1195.4766" style="stroke:#181818;stroke-width:1.0;"/><line style="stroke:#181818;stroke-width:1.0;" x1="566" x2="709" y1="1195.4766" y2="1195.4766"/><text fill="#000000" font-family="sans-serif" font-size="13" lengthAdjust="spacing" textLength="118" x="573" y="1190.4106">2.8 Process image</text><polygon fill="#181818" points="827,1220.6094,837,1224.6094,827,1228.6094,831,1224.6094" style="stroke:#181818;stroke-width:1.0;"/><line style="stroke:#181818;stroke-width:1.0;" x1="715" x2="833" y1="1224.6094" y2="1224.6094"/><text fill="#000000" font-family="sans-serif" font-size="13" lengthAdjust="spacing" textLength="100" x="722" y="1219.5435">2.9 Save image</text><polygon fill="#181818" points="967,1249.7422,977,1253.7422,967,1257.7422,971,1253.7422" style="stroke:#181818;stroke-width:1.0;"/><line style="stroke:#181818;stroke-width:1.0;" x1="839" x2="973" y1="1253.7422" y2="1253.7422"/><text fill="#000000" font-family="sans-serif" font-size="13" lengthAdjust="spacing" textLength="111" x="846" y="1248.6763">2.10 Store image</text><path d="M133,1275.7422 L340,1275.7422 L340,1282.875 L330,1292.875 L133,1292.875 L133,1275.7422 " fill="#EEEEEE" style="stroke:#000000;stroke-width:1.5;"/><rect fill="none" height="75.3984" style="stroke:#000000;stroke-width:1.5;" width="281" x="133" y="1275.7422"/><text fill="#000000" font-family="sans-serif" font-size="13" font-weight="bold" lengthAdjust="spacing" textLength="162" x="148" y="1288.8091">Frontend Post Submit</text><polygon fill="#181818" points="206,1310.0078,196,1314.0078,206,1318.0078,202,1314.0078" style="stroke:#181818;stroke-width:1.0;"/><line style="stroke:#181818;stroke-width:1.0;stroke-dasharray:2.0,2.0;" x1="200" x2="367" y1="1314.0078" y2="1314.0078"/><text fill="#000000" font-family="sans-serif" font-size="13" lengthAdjust="spacing" textLength="128" x="212" y="1308.9419">2.11 Get image URL</text><polygon fill="#181818" points="356,1339.1406,366,1343.1406,356,1347.1406,360,1343.1406" style="stroke:#181818;stroke-width:1.0;"/><line style="stroke:#181818;stroke-width:1.0;" x1="195" x2="362" y1="1343.1406" y2="1343.1406"/><text fill="#000000" font-family="sans-serif" font-size="13" lengthAdjust="spacing" textLength="140" x="202" y="1338.0747">2.12 createPost(data)</text><path d="M322,1365.1406 L555,1365.1406 L555,1372.2734 L545,1382.2734 L322,1382.2734 L322,1365.1406 " fill="#EEEEEE" style="stroke:#000000;stroke-width:1.5;"/><rect fill="none" height="133.6641" style="stroke:#000000;stroke-width:1.5;" width="710.5" x="322" y="1365.1406"/><text fill="#000000" font-family="sans-serif" font-size="13" font-weight="bold" lengthAdjust="spacing" textLength="188" x="337" y="1378.2075">Backend Post Processing</text><polygon fill="#181818" points="554,1399.4063,564,1403.4063,554,1407.4063,558,1403.4063" style="stroke:#181818;stroke-width:1.0;"/><line style="stroke:#181818;stroke-width:1.0;" x1="368" x2="560" y1="1403.4063" y2="1403.4063"/><text fill="#000000" font-family="sans-serif" font-size="13" lengthAdjust="spacing" textLength="152" x="375" y="1398.3403">2.13 POST /api/blogpost</text><polygon fill="#181818" points="703,1428.5391,713,1432.5391,703,1436.5391,707,1432.5391" style="stroke:#181818;stroke-width:1.0;"/><line style="stroke:#181818;stroke-width:1.0;" x1="566" x2="709" y1="1432.5391" y2="1432.5391"/><text fill="#000000" font-family="sans-serif" font-size="13" lengthAdjust="spacing" textLength="116" x="573" y="1427.4731">2.14 Validate post</text><polygon fill="#181818" points="827,1457.6719,837,1461.6719,827,1465.6719,831,1461.6719" style="stroke:#181818;stroke-width:1.0;"/><line style="stroke:#181818;stroke-width:1.0;" x1="715" x2="833" y1="1461.6719" y2="1461.6719"/><text fill="#000000" font-family="sans-serif" font-size="13" lengthAdjust="spacing" textLength="96" x="722" y="1456.606">2.15 Save post</text><polygon fill="#181818" points="967,1486.8047,977,1490.8047,967,1494.8047,971,1490.8047" style="stroke:#181818;stroke-width:1.0;"/><line style="stroke:#181818;stroke-width:1.0;" x1="839" x2="973" y1="1490.8047" y2="1490.8047"/><text fill="#000000" font-family="sans-serif" font-size="13" lengthAdjust="spacing" textLength="109" x="846" y="1485.7388">2.16 INSERT post</text><path d="M133,1512.8047 L334,1512.8047 L334,1519.9375 L324,1529.9375 L133,1529.9375 L133,1512.8047 " fill="#EEEEEE" style="stroke:#000000;stroke-width:1.5;"/><rect fill="none" height="117.5313" style="stroke:#000000;stroke-width:1.5;" width="487.5" x="133" y="1512.8047"/><text fill="#000000" font-family="sans-serif" font-size="13" font-weight="bold" lengthAdjust="spacing" textLength="156" x="148" y="1525.8716">Frontend Completion</text><polygon fill="#181818" points="379,1547.0703,369,1551.0703,379,1555.0703,375,1551.0703" style="stroke:#181818;stroke-width:1.0;"/><line style="stroke:#181818;stroke-width:1.0;stroke-dasharray:2.0,2.0;" x1="373" x2="565" y1="1551.0703" y2="1551.0703"/><text fill="#000000" font-family="sans-serif" font-size="13" lengthAdjust="spacing" textLength="148" x="385" y="1546.0044">2.17 Success response</text><polygon fill="#181818" points="206,1576.2031,196,1580.2031,206,1584.2031,202,1580.2031" style="stroke:#181818;stroke-width:1.0;"/><line style="stroke:#181818;stroke-width:1.0;stroke-dasharray:2.0,2.0;" x1="200" x2="367" y1="1580.2031" y2="1580.2031"/><text fill="#000000" font-family="sans-serif" font-size="13" lengthAdjust="spacing" textLength="121" x="212" y="1575.1372">2.18 Show success</text><line style="stroke:#181818;stroke-width:1.0;" x1="195" x2="237" y1="1609.3359" y2="1609.3359"/><line style="stroke:#181818;stroke-width:1.0;" x1="237" x2="237" y1="1609.3359" y2="1622.3359"/><line style="stroke:#181818;stroke-width:1.0;" x1="196" x2="237" y1="1622.3359" y2="1622.3359"/><polygon fill="#181818" points="206,1618.3359,196,1622.3359,206,1626.3359,202,1622.3359" style="stroke:#181818;stroke-width:1.0;"/><text fill="#000000" font-family="sans-serif" font-size="13" lengthAdjust="spacing" textLength="128" x="202" y="1604.27">2.19 Navigate to list</text><rect fill="#EEEEEE" height="3" style="stroke:#EEEEEE;stroke-width:1.0;" width="1042.5" x="0" y="1657.9023"/><line style="stroke:#000000;stroke-width:1.0;" x1="0" x2="1042.5" y1="1657.9023" y2="1657.9023"/><line style="stroke:#000000;stroke-width:1.0;" x1="0" x2="1042.5" y1="1660.9023" y2="1660.9023"/><rect fill="#EEEEEE" height="23.1328" style="stroke:#000000;stroke-width:2.0;" width="163" x="439.75" y="1647.3359"/><text fill="#000000" font-family="sans-serif" font-size="13" font-weight="bold" lengthAdjust="spacing" textLength="144" x="445.75" y="1663.4028">3. Blog Post Listing</text><path d="M10,1687.4688 L188,1687.4688 L188,1694.6016 L178,1704.6016 L10,1704.6016 L10,1687.4688 " fill="#EEEEEE" style="stroke:#000000;stroke-width:1.5;"/><rect fill="none" height="75.3984" style="stroke:#000000;stroke-width:1.5;" width="404" x="10" y="1687.4688"/><text fill="#000000" font-family="sans-serif" font-size="13" font-weight="bold" lengthAdjust="spacing" textLength="133" x="25" y="1700.5356">Frontend Request</text><polygon fill="#181818" points="183,1721.7344,193,1725.7344,183,1729.7344,187,1725.7344" style="stroke:#181818;stroke-width:1.0;"/><line style="stroke:#181818;stroke-width:1.0;" x1="39" x2="189" y1="1725.7344" y2="1725.7344"/><text fill="#000000" font-family="sans-serif" font-size="13" lengthAdjust="spacing" textLength="92" x="46" y="1720.6685">3.1 View posts</text><polygon fill="#181818" points="356,1750.8672,366,1754.8672,356,1758.8672,360,1754.8672" style="stroke:#181818;stroke-width:1.0;"/><line style="stroke:#181818;stroke-width:1.0;" x1="195" x2="362" y1="1754.8672" y2="1754.8672"/><text fill="#000000" font-family="sans-serif" font-size="13" lengthAdjust="spacing" textLength="90" x="202" y="1749.8013">3.2 getPosts()</text><path d="M322,1776.8672 L517,1776.8672 L517,1784 L507,1794 L322,1794 L322,1776.8672 " fill="#EEEEEE" style="stroke:#000000;stroke-width:1.5;"/><rect fill="none" height="191.9297" style="stroke:#000000;stroke-width:1.5;" width="710.5" x="322" y="1776.8672"/><text fill="#000000" font-family="sans-serif" font-size="13" font-weight="bold" lengthAdjust="spacing" textLength="150" x="337" y="1789.9341">Backend Processing</text><polygon fill="#181818" points="554,1811.1328,564,1815.1328,554,1819.1328,558,1815.1328" style="stroke:#181818;stroke-width:1.0;"/><line style="stroke:#181818;stroke-width:1.0;" x1="368" x2="560" y1="1815.1328" y2="1815.1328"/><text fill="#000000" font-family="sans-serif" font-size="13" lengthAdjust="spacing" textLength="135" x="375" y="1810.0669">3.3 GET /api/blogpost</text><polygon fill="#181818" points="703,1840.2656,713,1844.2656,703,1848.2656,707,1844.2656" style="stroke:#181818;stroke-width:1.0;"/><line style="stroke:#181818;stroke-width:1.0;" x1="566" x2="709" y1="1844.2656" y2="1844.2656"/><text fill="#000000" font-family="sans-serif" font-size="13" lengthAdjust="spacing" textLength="107" x="573" y="1839.1997">3.4 GetAllPosts()</text><polygon fill="#181818" points="827,1869.3984,837,1873.3984,827,1877.3984,831,1873.3984" style="stroke:#181818;stroke-width:1.0;"/><line style="stroke:#181818;stroke-width:1.0;" x1="715" x2="833" y1="1873.3984" y2="1873.3984"/><text fill="#000000" font-family="sans-serif" font-size="13" lengthAdjust="spacing" textLength="72" x="722" y="1868.3325">3.5 GetAll()</text><polygon fill="#181818" points="967,1898.5313,977,1902.5313,967,1906.5313,971,1902.5313" style="stroke:#181818;stroke-width:1.0;"/><line style="stroke:#181818;stroke-width:1.0;" x1="839" x2="973" y1="1902.5313" y2="1902.5313"/><text fill="#000000" font-family="sans-serif" font-size="13" lengthAdjust="spacing" textLength="111" x="846" y="1897.4653">3.6 SELECT posts</text><polygon fill="#181818" points="726,1927.6641,716,1931.6641,726,1935.6641,722,1931.6641" style="stroke:#181818;stroke-width:1.0;"/><line style="stroke:#181818;stroke-width:1.0;stroke-dasharray:2.0,2.0;" x1="720" x2="978" y1="1931.6641" y2="1931.6641"/><text fill="#000000" font-family="sans-serif" font-size="13" lengthAdjust="spacing" textLength="92" x="732" y="1926.5981">3.7 Posts data</text><polygon fill="#181818" points="577,1956.7969,567,1960.7969,577,1964.7969,573,1960.7969" style="stroke:#181818;stroke-width:1.0;"/><line style="stroke:#181818;stroke-width:1.0;stroke-dasharray:2.0,2.0;" x1="571" x2="714" y1="1960.7969" y2="1960.7969"/><text fill="#000000" font-family="sans-serif" font-size="13" lengthAdjust="spacing" textLength="106" x="583" y="1955.731">3.8 Map to DTOs</text><path d="M133,1982.7969 L304,1982.7969 L304,1989.9297 L294,1999.9297 L133,1999.9297 L133,1982.7969 " fill="#EEEEEE" style="stroke:#000000;stroke-width:1.5;"/><rect fill="none" height="117.5313" style="stroke:#000000;stroke-width:1.5;" width="487.5" x="133" y="1982.7969"/><text fill="#000000" font-family="sans-serif" font-size="13" font-weight="bold" lengthAdjust="spacing" textLength="126" x="148" y="1995.8638">Frontend Display</text><polygon fill="#181818" points="379,2017.0625,369,2021.0625,379,2025.0625,375,2021.0625" style="stroke:#181818;stroke-width:1.0;"/><line style="stroke:#181818;stroke-width:1.0;stroke-dasharray:2.0,2.0;" x1="373" x2="565" y1="2021.0625" y2="2021.0625"/><text fill="#000000" font-family="sans-serif" font-size="13" lengthAdjust="spacing" textLength="96" x="385" y="2015.9966">3.9 Posts array</text><polygon fill="#181818" points="206,2046.1953,196,2050.1953,206,2054.1953,202,2050.1953" style="stroke:#181818;stroke-width:1.0;"/><line style="stroke:#181818;stroke-width:1.0;stroke-dasharray:2.0,2.0;" x1="200" x2="367" y1="2050.1953" y2="2050.1953"/><text fill="#000000" font-family="sans-serif" font-size="13" lengthAdjust="spacing" textLength="116" x="212" y="2045.1294">3.10 Update state</text><line style="stroke:#181818;stroke-width:1.0;" x1="195" x2="237" y1="2079.3281" y2="2079.3281"/><line style="stroke:#181818;stroke-width:1.0;" x1="237" x2="237" y1="2079.3281" y2="2092.3281"/><line style="stroke:#181818;stroke-width:1.0;" x1="196" x2="237" y1="2092.3281" y2="2092.3281"/><polygon fill="#181818" points="206,2088.3281,196,2092.3281,206,2096.3281,202,2092.3281" style="stroke:#181818;stroke-width:1.0;"/><text fill="#000000" font-family="sans-serif" font-size="13" lengthAdjust="spacing" textLength="116" x="202" y="2074.2622">3.11 Render posts</text><rect fill="#EEEEEE" height="3" style="stroke:#EEEEEE;stroke-width:1.0;" width="1042.5" x="0" y="2127.8945"/><line style="stroke:#000000;stroke-width:1.0;" x1="0" x2="1042.5" y1="2127.8945" y2="2127.8945"/><line style="stroke:#000000;stroke-width:1.0;" x1="0" x2="1042.5" y1="2130.8945" y2="2130.8945"/><rect fill="#EEEEEE" height="23.1328" style="stroke:#000000;stroke-width:2.0;" width="168" x="437.25" y="2117.3281"/><text fill="#000000" font-family="sans-serif" font-size="13" font-weight="bold" lengthAdjust="spacing" textLength="149" x="443.25" y="2133.395">4. Blog Post Update</text><path d="M10,2157.4609 L156,2157.4609 L156,2164.5938 L146,2174.5938 L10,2174.5938 L10,2157.4609 " fill="#EEEEEE" style="stroke:#000000;stroke-width:1.5;"/><rect fill="none" height="75.3984" style="stroke:#000000;stroke-width:1.5;" width="404" x="10" y="2157.4609"/><text fill="#000000" font-family="sans-serif" font-size="13" font-weight="bold" lengthAdjust="spacing" textLength="101" x="25" y="2170.5278">Frontend Edit</text><polygon fill="#181818" points="183,2191.7266,193,2195.7266,183,2199.7266,187,2195.7266" style="stroke:#181818;stroke-width:1.0;"/><line style="stroke:#181818;stroke-width:1.0;" x1="39" x2="189" y1="2195.7266" y2="2195.7266"/><text fill="#000000" font-family="sans-serif" font-size="13" lengthAdjust="spacing" textLength="81" x="46" y="2190.6606">4.1 Click edit</text><polygon fill="#181818" points="356,2220.8594,366,2224.8594,356,2228.8594,360,2224.8594" style="stroke:#181818;stroke-width:1.0;"/><line style="stroke:#181818;stroke-width:1.0;" x1="195" x2="362" y1="2224.8594" y2="2224.8594"/><text fill="#000000" font-family="sans-serif" font-size="13" lengthAdjust="spacing" textLength="94" x="202" y="2219.7935">4.2 getPost(id)</text><path d="M322,2246.8594 L477,2246.8594 L477,2253.9922 L467,2263.9922 L322,2263.9922 L322,2246.8594 " fill="#EEEEEE" style="stroke:#000000;stroke-width:1.5;"/><rect fill="none" height="133.6641" style="stroke:#000000;stroke-width:1.5;" width="710.5" x="322" y="2246.8594"/><text fill="#000000" font-family="sans-serif" font-size="13" font-weight="bold" lengthAdjust="spacing" textLength="110" x="337" y="2259.9263">Backend Fetch</text><polygon fill="#181818" points="554,2281.125,564,2285.125,554,2289.125,558,2285.125" style="stroke:#181818;stroke-width:1.0;"/><line style="stroke:#181818;stroke-width:1.0;" x1="368" x2="560" y1="2285.125" y2="2285.125"/><text fill="#000000" font-family="sans-serif" font-size="13" lengthAdjust="spacing" textLength="166" x="375" y="2280.0591">4.3 GET /api/blogpost/{id}</text><polygon fill="#181818" points="703,2310.2578,713,2314.2578,703,2318.2578,707,2314.2578" style="stroke:#181818;stroke-width:1.0;"/><line style="stroke:#181818;stroke-width:1.0;" x1="566" x2="709" y1="2314.2578" y2="2314.2578"/><text fill="#000000" font-family="sans-serif" font-size="13" lengthAdjust="spacing" textLength="85" x="573" y="2309.1919">4.4 GetPost()</text><polygon fill="#181818" points="827,2339.3906,837,2343.3906,827,2347.3906,831,2343.3906" style="stroke:#181818;stroke-width:1.0;"/><line style="stroke:#181818;stroke-width:1.0;" x1="715" x2="833" y1="2343.3906" y2="2343.3906"/><text fill="#000000" font-family="sans-serif" font-size="13" lengthAdjust="spacing" textLength="84" x="722" y="2338.3247">4.5 GetById()</text><polygon fill="#181818" points="967,2368.5234,977,2372.5234,967,2376.5234,971,2372.5234" style="stroke:#181818;stroke-width:1.0;"/><line style="stroke:#181818;stroke-width:1.0;" x1="839" x2="973" y1="2372.5234" y2="2372.5234"/><text fill="#000000" font-family="sans-serif" font-size="13" lengthAdjust="spacing" textLength="104" x="846" y="2367.4575">4.6 SELECT post</text><path d="M10,2394.5234 L181,2394.5234 L181,2401.6563 L171,2411.6563 L10,2411.6563 L10,2394.5234 " fill="#EEEEEE" style="stroke:#000000;stroke-width:1.5;"/><rect fill="none" height="104.5313" style="stroke:#000000;stroke-width:1.5;" width="1022.5" x="10" y="2394.5234"/><text fill="#000000" font-family="sans-serif" font-size="13" font-weight="bold" lengthAdjust="spacing" textLength="126" x="25" y="2407.5903">Frontend Update</text><polygon fill="#181818" points="206,2428.7891,196,2432.7891,206,2436.7891,202,2432.7891" style="stroke:#181818;stroke-width:1.0;"/><line style="stroke:#181818;stroke-width:1.0;stroke-dasharray:2.0,2.0;" x1="200" x2="978" y1="2432.7891" y2="2432.7891"/><text fill="#000000" font-family="sans-serif" font-size="13" lengthAdjust="spacing" textLength="89" x="212" y="2427.7231">4.7 Load form</text><polygon fill="#181818" points="183,2457.9219,193,2461.9219,183,2465.9219,187,2461.9219" style="stroke:#181818;stroke-width:1.0;"/><line style="stroke:#181818;stroke-width:1.0;" x1="39" x2="189" y1="2461.9219" y2="2461.9219"/><text fill="#000000" font-family="sans-serif" font-size="13" lengthAdjust="spacing" textLength="117" x="46" y="2456.856">4.8 Update details</text><polygon fill="#181818" points="356,2487.0547,366,2491.0547,356,2495.0547,360,2491.0547" style="stroke:#181818;stroke-width:1.0;"/><line style="stroke:#181818;stroke-width:1.0;" x1="195" x2="362" y1="2491.0547" y2="2491.0547"/><text fill="#000000" font-family="sans-serif" font-size="13" lengthAdjust="spacing" textLength="136" x="202" y="2485.9888">4.9 updatePost(data)</text><path d="M322,2513.0547 L490,2513.0547 L490,2520.1875 L480,2530.1875 L322,2530.1875 L322,2513.0547 " fill="#EEEEEE" style="stroke:#000000;stroke-width:1.5;"/><rect fill="none" height="133.6641" style="stroke:#000000;stroke-width:1.5;" width="710.5" x="322" y="2513.0547"/><text fill="#000000" font-family="sans-serif" font-size="13" font-weight="bold" lengthAdjust="spacing" textLength="123" x="337" y="2526.1216">Backend Update</text><polygon fill="#181818" points="554,2547.3203,564,2551.3203,554,2555.3203,558,2551.3203" style="stroke:#181818;stroke-width:1.0;"/><line style="stroke:#181818;stroke-width:1.0;" x1="368" x2="560" y1="2551.3203" y2="2551.3203"/><text fill="#000000" font-family="sans-serif" font-size="13" lengthAdjust="spacing" textLength="174" x="375" y="2546.2544">4.10 PUT /api/blogpost/{id}</text><polygon fill="#181818" points="703,2576.4531,713,2580.4531,703,2584.4531,707,2580.4531" style="stroke:#181818;stroke-width:1.0;"/><line style="stroke:#181818;stroke-width:1.0;" x1="566" x2="709" y1="2580.4531" y2="2580.4531"/><text fill="#000000" font-family="sans-serif" font-size="13" lengthAdjust="spacing" textLength="117" x="573" y="2575.3872">4.11 UpdatePost()</text><polygon fill="#181818" points="827,2605.5859,837,2609.5859,827,2613.5859,831,2609.5859" style="stroke:#181818;stroke-width:1.0;"/><line style="stroke:#181818;stroke-width:1.0;" x1="715" x2="833" y1="2609.5859" y2="2609.5859"/><text fill="#000000" font-family="sans-serif" font-size="13" lengthAdjust="spacing" textLength="79" x="722" y="2604.52">4.12 Update</text><polygon fill="#181818" points="967,2634.7188,977,2638.7188,967,2642.7188,971,2638.7188" style="stroke:#181818;stroke-width:1.0;"/><line style="stroke:#181818;stroke-width:1.0;" x1="839" x2="973" y1="2638.7188" y2="2638.7188"/><text fill="#000000" font-family="sans-serif" font-size="13" lengthAdjust="spacing" textLength="116" x="846" y="2633.6528">4.13 UPDATE post</text><path d="M133,2660.7188 L334,2660.7188 L334,2667.8516 L324,2677.8516 L133,2677.8516 L133,2660.7188 " fill="#EEEEEE" style="stroke:#000000;stroke-width:1.5;"/><rect fill="none" height="88.3984" style="stroke:#000000;stroke-width:1.5;" width="899.5" x="133" y="2660.7188"/><text fill="#000000" font-family="sans-serif" font-size="13" font-weight="bold" lengthAdjust="spacing" textLength="156" x="148" y="2673.7856">Frontend Completion</text><polygon fill="#181818" points="206,2694.9844,196,2698.9844,206,2702.9844,202,2698.9844" style="stroke:#181818;stroke-width:1.0;"/><line style="stroke:#181818;stroke-width:1.0;stroke-dasharray:2.0,2.0;" x1="200" x2="978" y1="2698.9844" y2="2698.9844"/><text fill="#000000" font-family="sans-serif" font-size="13" lengthAdjust="spacing" textLength="85" x="212" y="2693.9185">4.14 Success</text><line style="stroke:#181818;stroke-width:1.0;" x1="195" x2="237" y1="2728.1172" y2="2728.1172"/><line style="stroke:#181818;stroke-width:1.0;" x1="237" x2="237" y1="2728.1172" y2="2741.1172"/><line style="stroke:#181818;stroke-width:1.0;" x1="196" x2="237" y1="2741.1172" y2="2741.1172"/><polygon fill="#181818" points="206,2737.1172,196,2741.1172,206,2745.1172,202,2741.1172" style="stroke:#181818;stroke-width:1.0;"/><text fill="#000000" font-family="sans-serif" font-size="13" lengthAdjust="spacing" textLength="140" x="202" y="2723.0513">4.15 Show notification</text><!--MD5=[615c08a36546a10e3d965bc1b21912c8]
@startuml
box "Frontend (Angular)" #LightYellow
    actor User
    participant "Angular\nComponents" as UI
    participant "Angular\nServices" as Service
end box

box "Backend (.NET Core)" #LightBlue
    participant "API\nControllers" as API
    participant "Business\nServices" as BService
    participant "Repository" as Repo
    database "PostgreSQL" as DB
end box

note over User, Service #LightBlue
    Frontend Layer:
    - User Interface Components
    - Form Validation
    - State Management
    - HTTP Service Calls
end note

note over API, DB #LightYellow
    Backend Layer:
    - REST API Endpoints
    - Business Logic
    - Data Access
    - Database Operations
end note

== 1. Authentication Flow ==
group Frontend
    User -> UI: 1.1 Enter credentials
    UI -> UI: 1.2 Validate input
    UI -> Service: 1.3 login(credentials)
end
group Backend
    Service -> API: 1.4 POST /api/auth/login
    API -> BService: 1.5 ValidateUser()
    BService -> Repo: 1.6 GetUser()
    Repo -> DB: 1.7 SELECT Users
    DB - -> BService: 1.8 Generate JWT
    BService - -> API: 1.9 Token response
end
group Frontend Response
    API - -> Service: 1.10 Return token
    Service -> Service: 1.11 Store token
    Service - -> UI: 1.12 Update auth state
end

== 2. Blog Post Creation ==
group Frontend Preparation
    User -> UI: 2.1 Click create post
    UI -> UI: 2.2 Load form
    User -> UI: 2.3 Fill details
    UI -> UI: 2.4 Validate form
end
group Frontend Image Upload
    User -> UI: 2.5 Select image
    UI -> Service: 2.6 uploadImage(file)
end
group Backend Image Processing
    Service -> API: 2.7 POST /api/image
    API -> BService: 2.8 Process image
    BService -> Repo: 2.9 Save image
    Repo -> DB: 2.10 Store image
end
group Frontend Post Submit
    Service - -> UI: 2.11 Get image URL
    UI -> Service: 2.12 createPost(data)
end
group Backend Post Processing
    Service -> API: 2.13 POST /api/blogpost
    API -> BService: 2.14 Validate post
    BService -> Repo: 2.15 Save post
    Repo -> DB: 2.16 INSERT post
end
group Frontend Completion
    API - -> Service: 2.17 Success response
    Service - -> UI: 2.18 Show success
    UI -> UI: 2.19 Navigate to list
end

== 3. Blog Post Listing ==
group Frontend Request
    User -> UI: 3.1 View posts
    UI -> Service: 3.2 getPosts()
end
group Backend Processing
    Service -> API: 3.3 GET /api/blogpost
    API -> BService: 3.4 GetAllPosts()
    BService -> Repo: 3.5 GetAll()
    Repo -> DB: 3.6 SELECT posts
    DB - -> BService: 3.7 Posts data
    BService - -> API: 3.8 Map to DTOs
end
group Frontend Display
    API - -> Service: 3.9 Posts array
    Service - -> UI: 3.10 Update state
    UI -> UI: 3.11 Render posts
end

== 4. Blog Post Update ==
group Frontend Edit
    User -> UI: 4.1 Click edit
    UI -> Service: 4.2 getPost(id)
end
group Backend Fetch
    Service -> API: 4.3 GET /api/blogpost/{id}
    API -> BService: 4.4 GetPost()
    BService -> Repo: 4.5 GetById()
    Repo -> DB: 4.6 SELECT post
end
group Frontend Update
    DB - -> UI: 4.7 Load form
    User -> UI: 4.8 Update details
    UI -> Service: 4.9 updatePost(data)
end
group Backend Update
    Service -> API: 4.10 PUT /api/blogpost/{id}
    API -> BService: 4.11 UpdatePost()
    BService -> Repo: 4.12 Update
    Repo -> DB: 4.13 UPDATE post
end
group Frontend Completion
    DB - -> UI: 4.14 Success
    UI -> UI: 4.15 Show notification
end
@enduml

PlantUML version 1.2022.7(Mon Aug 22 17:01:30 UTC 2022)
(GPL source distribution)
Java Runtime: OpenJDK Runtime Environment
JVM: OpenJDK 64-Bit Server VM
Default Encoding: UTF-8
Language: en
Country: null
--></g></svg>